<svg width="113" height="101" viewBox="0 0 113 101" fill="none" xmlns="http://www.w3.org/2000/svg">
<g clip-path="url(#clip0_8_531)">
<path d="M92.9055 32.7027C91.7031 32.2886 90.4904 31.905 89.2687 31.5522C89.4739 30.7106 89.6628 29.8791 89.8305 29.0622C92.5838 15.6483 90.7839 4.84172 84.636 1.28369C78.7415 -2.12728 69.1016 1.42943 59.3659 9.93336C58.4064 10.773 57.4681 11.6368 56.5521 12.5239C55.9389 11.934 55.3148 11.3555 54.6803 10.7888C44.4767 1.6961 34.2493 -2.13614 28.1081 1.43209C22.2189 4.85368 20.475 15.0126 22.9537 27.7253C23.2003 28.9844 23.4788 30.2369 23.7888 31.4818C22.3411 31.8947 20.9442 32.3341 19.6073 32.8019C7.64439 36.9881 0.00472641 43.5482 0.00472641 50.3528C0.00472641 57.3808 8.20626 64.4299 20.6661 68.7043C21.6763 69.0494 22.6948 69.3692 23.7208 69.6633C23.3876 71.0041 23.0918 72.354 22.8337 73.7113C20.4706 86.2034 22.316 96.1222 28.1893 99.5221C34.2555 103.033 44.437 99.4247 54.3506 90.7267C55.1545 90.0196 55.9406 89.2924 56.7084 88.5459C57.7004 89.5065 58.7189 90.4392 59.7626 91.3429C69.366 99.6364 78.8501 102.985 84.7177 99.5762C90.7781 96.0549 92.748 85.3994 90.1907 72.4355C89.9892 71.4199 89.7633 70.4093 89.5132 69.4046C90.2282 69.192 90.93 68.9732 91.6141 68.7455C104.567 64.4384 112.995 57.4747 112.995 50.3528C112.995 43.5234 105.109 36.919 92.9055 32.7027ZM90.0962 64.1473C89.4783 64.3524 88.8445 64.5504 88.1983 64.7431C86.7683 60.1995 84.8386 55.3683 82.4769 50.3763C84.7305 45.5035 86.586 40.7339 87.9759 36.2199C89.1318 36.5557 90.2533 36.9097 91.3347 37.2831C101.791 40.8961 108.169 46.2371 108.169 50.3528C108.169 54.7366 101.281 60.4276 90.0962 64.1473ZM85.4557 73.3764C86.5865 79.1086 86.7476 84.2915 85.9985 88.3435C85.3259 91.9843 83.9727 94.4114 82.299 95.3838C78.7385 97.4525 71.1235 94.7636 62.9109 87.6706C61.9401 86.8304 60.9927 85.9633 60.0698 85.0703C63.2539 81.5756 66.4357 77.513 69.5412 73.0008C75.0036 72.5144 80.1641 71.7188 84.8439 70.633C85.0694 71.5425 85.2733 72.4572 85.4557 73.3764ZM38.5257 95.0263C35.0468 96.2591 32.2759 96.2946 30.6009 95.3253C27.0369 93.2623 25.5552 85.298 27.5762 74.615C27.8165 73.3526 28.0915 72.0972 28.4011 70.8501C33.0293 71.8778 38.1523 72.6167 43.6275 73.0623C46.7542 77.4776 50.0278 81.5357 53.327 85.0893C52.6259 85.7702 51.9082 86.4337 51.1745 87.0792C46.7904 90.9252 42.3974 93.6539 38.5257 95.0263ZM22.2277 64.1203C16.7181 62.2301 12.168 59.7738 9.04927 57.0933C6.24658 54.6848 4.83199 52.2931 4.83199 50.3528C4.83199 46.2234 10.9657 40.9563 21.1962 37.3766C22.4378 36.9424 23.7372 36.5327 25.0856 36.1482C26.4997 40.764 28.3543 45.5903 30.5925 50.4707C28.3252 55.4232 26.4441 60.3266 25.0163 64.997C24.0797 64.7277 23.1499 64.4354 22.2277 64.1203ZM27.691 26.7946C25.5675 15.903 26.9777 7.687 30.5268 5.62491C34.3067 3.42861 42.6653 6.56005 51.4755 14.4115C52.05 14.9246 52.6152 15.4482 53.1708 15.9818C49.8879 19.5199 46.6443 23.548 43.5454 27.9371C38.2313 28.4314 33.1445 29.2252 28.4678 30.2888C28.1796 29.131 27.9206 27.966 27.691 26.795V26.7946ZM76.4301 38.8738C75.3255 36.9588 74.1798 35.0679 72.994 33.2023C76.5991 33.6599 80.0533 34.2673 83.2969 35.0097C82.3233 38.1425 81.1095 41.4175 79.6808 44.7753C78.6365 42.7866 77.5527 40.8191 76.4301 38.8738ZM56.5543 19.4442C58.7806 21.8651 61.0104 24.5677 63.2036 27.5003C58.7546 27.2894 54.2981 27.2885 49.849 27.4976C52.0444 24.5921 54.2932 21.893 56.5543 19.4442ZM36.551 38.9071C35.4425 40.8366 34.3789 42.7919 33.3612 44.7713C31.9559 41.4254 30.7532 38.1354 29.7711 34.9583C32.9949 34.2345 36.4327 33.6427 40.0149 33.1935C38.8159 35.0704 37.6609 36.9753 36.551 38.9066V38.9071ZM40.1177 67.8569C36.4168 67.4422 32.9274 66.881 29.7045 66.1766C30.702 62.9429 31.9312 59.5828 33.367 56.1652C34.3887 58.1461 35.4566 60.1025 36.57 62.033C37.7149 64.0175 38.9004 65.9613 40.1177 67.8569ZM56.6876 81.6026C54.3996 79.1255 52.1177 76.3847 49.8892 73.4371C52.0528 73.5222 54.2583 73.5656 56.5 73.5656C58.8031 73.5656 61.0797 73.5137 63.3205 73.4136C61.1203 76.4144 58.8989 79.1591 56.6876 81.6026ZM79.7262 55.9907C81.2366 59.4459 82.5095 62.7883 83.5203 65.9667C80.2444 66.7171 76.7073 67.3213 72.9804 67.77C74.1746 65.8699 75.3311 63.9461 76.4491 61.9998C77.5858 60.0214 78.6784 58.0179 79.7262 55.9907ZM72.268 59.5793C70.5564 62.5634 68.7487 65.4908 66.8475 68.357C63.4038 68.6018 59.9524 68.7234 56.5 68.7216C52.9837 68.7216 49.5635 68.6117 46.27 68.3973C44.3192 65.5378 42.477 62.6052 40.7471 59.6059H40.7476C39.0259 56.6224 37.4177 53.5744 35.9265 50.4685C37.4139 47.3618 39.0172 44.3124 40.733 41.3266L40.7326 41.3271C42.4477 38.3406 44.2753 35.4206 46.2113 32.5733C49.5714 32.3181 53.0172 32.1853 56.4996 32.1853H56.5C59.9983 32.1853 63.4485 32.3195 66.8078 32.5764C68.7243 35.4194 70.5401 38.3294 72.2521 41.3009C73.9736 44.2801 75.5981 47.3146 77.1231 50.3998C75.6138 53.5165 73.9944 56.5783 72.268 59.5793ZM82.2253 5.4805C86.0087 7.67061 87.4802 16.5023 85.103 28.0841C84.9512 28.823 84.7808 29.5756 84.5954 30.3389C79.9072 29.2527 74.8169 28.4452 69.4873 27.9433C66.3828 23.5059 63.1656 19.4717 59.9361 15.9792C60.7825 15.1603 61.649 14.3627 62.5349 13.5871C70.8768 6.30135 78.6731 3.42462 82.2253 5.4805ZM56.5 40.2263C62.0723 40.2263 66.5898 44.7602 66.5898 50.3528C66.5898 55.9455 62.0723 60.4794 56.5 60.4794C50.9278 60.4794 46.4103 55.9455 46.4103 50.3528C46.4103 44.7602 50.9278 40.2263 56.5 40.2263Z" fill="#00D8FF"/>
</g>
<defs>
<clipPath id="clip0_8_531">
<rect width="113" height="101" fill="white"/>
</clipPath>
</defs>
</svg>
