<svg width="1215" height="328" viewBox="0 0 1215 328" fill="none" xmlns="http://www.w3.org/2000/svg">
<g clip-path="url(#clip0_1_158)">
<path fill-rule="evenodd" clip-rule="evenodd" d="M1162 229.124C1137.69 229.124 1118 248.814 1118 273.124C1118 292.594 1130.6 309.039 1148.09 314.869C1150.29 315.254 1151.11 313.934 1151.11 312.779C1151.11 311.734 1151.06 308.269 1151.06 304.584C1140 306.619 1137.14 301.889 1136.26 299.414C1135.77 298.149 1133.62 294.244 1131.75 293.199C1130.21 292.374 1128.01 290.339 1131.69 290.284C1135.16 290.229 1137.64 293.474 1138.46 294.794C1142.42 301.449 1148.74 299.579 1151.28 298.424C1151.66 295.564 1152.82 293.639 1154.08 292.539C1144.29 291.439 1134.06 287.644 1134.06 270.814C1134.06 266.029 1135.77 262.069 1138.57 258.989C1138.13 257.889 1136.59 253.379 1139.01 247.329C1139.01 247.329 1142.69 246.174 1151.11 251.839C1154.63 250.849 1158.37 250.354 1162.11 250.354C1165.85 250.354 1169.59 250.849 1173.11 251.839C1181.53 246.119 1185.21 247.329 1185.21 247.329C1187.63 253.379 1186.09 257.889 1185.65 258.989C1188.46 262.069 1190.16 265.974 1190.16 270.814C1190.16 287.699 1179.88 291.439 1170.09 292.539C1171.68 293.914 1173.06 296.554 1173.06 300.679C1173.06 306.564 1173 311.294 1173 312.779C1173 313.934 1173.83 315.309 1176.03 314.869C1184.76 311.92 1192.35 306.306 1197.73 298.818C1203.1 291.329 1206 282.343 1206 273.124C1206 248.814 1186.31 229.124 1162 229.124Z" fill="black"/>
</g>
<g clip-path="url(#clip1_1_158)">
<path d="M582.02 247.946L536.176 202.104C533.537 199.464 529.255 199.464 526.613 202.104L517.094 211.624L529.17 223.7C531.976 222.752 535.194 223.388 537.431 225.625C539.679 227.877 540.311 231.122 539.339 233.937L550.978 245.576C553.793 244.606 557.042 245.234 559.291 247.486C562.434 250.628 562.434 255.72 559.291 258.864C556.147 262.008 551.055 262.008 547.91 258.864C545.545 256.497 544.961 253.025 546.158 250.113L535.305 239.259L535.303 267.821C536.09 268.21 536.809 268.724 537.431 269.343C540.574 272.485 540.574 277.577 537.431 280.724C534.287 283.866 529.193 283.866 526.054 280.724C522.911 277.577 522.911 272.485 526.054 269.343C526.807 268.59 527.702 267.993 528.687 267.587V238.759C527.7 238.356 526.805 237.759 526.054 237.003C523.672 234.625 523.1 231.131 524.32 228.207L512.415 216.302L480.981 247.734C478.34 250.377 478.34 254.659 480.981 257.3L526.826 303.142C529.465 305.782 533.746 305.782 536.389 303.142L582.019 257.512C584.66 254.871 584.66 250.586 582.019 247.946" fill="#DE4C36"/>
</g>
<g clip-path="url(#clip2_1_158)">
<path d="M765.906 41.8268C764.703 41.4127 763.49 41.0291 762.269 40.6763C762.474 39.8347 762.663 39.0032 762.831 38.1863C765.584 24.7724 763.784 13.9658 757.636 10.4078C751.742 6.99684 742.102 10.5535 732.366 19.0575C731.406 19.8971 730.468 20.7609 729.552 21.648C728.939 21.0581 728.315 20.4796 727.68 19.9129C717.477 10.8202 707.249 6.98798 701.108 10.5562C695.219 13.9778 693.475 24.1367 695.954 36.8494C696.2 38.1085 696.479 39.3611 696.789 40.6059C695.341 41.0188 693.944 41.4582 692.607 41.926C680.644 46.1122 673.005 52.6723 673.005 59.477C673.005 66.5049 681.206 73.5541 693.666 77.8284C694.676 78.1735 695.695 78.4933 696.721 78.7875C696.388 80.1282 696.092 81.4781 695.834 82.8354C693.471 95.3275 695.316 105.246 701.189 108.646C707.255 112.157 717.437 108.549 727.351 99.8508C728.154 99.1437 728.941 98.4165 729.708 97.67C730.7 98.6307 731.719 99.5634 732.763 100.467C742.366 108.761 751.85 112.109 757.718 108.7C763.778 105.179 765.748 94.5235 763.191 81.5596C762.989 80.544 762.763 79.5334 762.513 78.5288C763.228 78.3161 763.93 78.0973 764.614 77.8696C777.567 73.5625 785.995 66.5988 785.995 59.477C785.995 52.6475 778.109 46.0431 765.906 41.8268V41.8268ZM763.096 73.2714C762.478 73.4765 761.844 73.6746 761.198 73.8673C759.768 69.3236 757.839 64.4924 755.477 59.5004C757.73 54.6276 759.586 49.858 760.976 45.3441C762.132 45.6798 763.253 46.0338 764.335 46.4072C774.791 50.0202 781.169 55.3612 781.169 59.477C781.169 63.8607 774.281 69.5517 763.096 73.2714V73.2714ZM758.456 82.5005C759.586 88.2327 759.748 93.4156 758.999 97.4676C758.326 101.108 756.973 103.536 755.299 104.508C751.738 106.577 744.124 103.888 735.911 96.7947C734.94 95.9545 733.993 95.0874 733.07 94.1944C736.254 90.6997 739.436 86.6371 742.541 82.1249C748.004 81.6385 753.164 80.8429 757.844 79.7571C758.069 80.6666 758.273 81.5814 758.456 82.5005V82.5005ZM711.526 104.15C708.047 105.383 705.276 105.419 703.601 104.449C700.037 102.386 698.555 94.4221 700.576 83.7391C700.816 82.4767 701.092 81.2213 701.401 79.9742C706.029 81.0019 711.152 81.7408 716.628 82.1865C719.754 86.6017 723.028 90.6598 726.327 94.2134C725.626 94.8944 724.908 95.5579 724.174 96.2033C719.79 100.049 715.397 102.778 711.526 104.15V104.15ZM695.228 73.2444C689.718 71.3542 685.168 68.8979 682.049 66.2174C679.247 63.8089 677.832 61.4172 677.832 59.477C677.832 55.3475 683.966 50.0804 694.196 46.5007C695.438 46.0666 696.737 45.6568 698.086 45.2723C699.5 49.8882 701.354 54.7145 703.593 59.5948C701.325 64.5473 699.444 69.4507 698.016 74.1211C697.08 73.8518 696.15 73.5595 695.228 73.2444V73.2444ZM700.691 35.9187C698.568 25.0271 699.978 16.8111 703.527 14.749C707.307 12.5527 715.665 15.6842 724.475 23.5356C725.05 24.0487 725.615 24.5723 726.171 25.106C722.888 28.6441 719.644 32.6721 716.545 37.0612C711.231 37.5555 706.145 38.3494 701.468 39.413C701.18 38.2551 700.921 37.0901 700.691 35.9192V35.9187ZM749.43 47.998C748.325 46.0829 747.18 44.192 745.994 42.3265C749.599 42.7841 753.053 43.3914 756.297 44.1338C755.323 47.2666 754.11 50.5416 752.681 53.8994C751.636 51.9107 750.553 49.9432 749.43 47.998V47.998ZM729.554 28.5683C731.781 30.9892 734.01 33.6918 736.204 36.6244C731.755 36.4135 727.298 36.4126 722.849 36.6217C725.044 33.7162 727.293 31.0171 729.554 28.5683ZM709.551 48.0312C708.442 49.9607 707.379 51.916 706.361 53.8954C704.956 50.5495 703.753 47.2595 702.771 44.0824C705.995 43.3586 709.433 42.7668 713.015 42.3176C711.816 44.1945 710.661 46.0994 709.551 48.0307V48.0312ZM713.118 76.981C709.417 76.5663 705.927 76.0051 702.704 75.3007C703.702 72.067 704.931 68.7069 706.367 65.2893C707.389 67.2702 708.457 69.2266 709.57 71.1571C710.715 73.1416 711.9 75.0855 713.118 76.981ZM729.688 90.7267C727.4 88.2496 725.118 85.5088 722.889 82.5612C725.053 82.6463 727.258 82.6897 729.5 82.6897C731.803 82.6897 734.08 82.6379 736.321 82.5377C734.12 85.5385 731.899 88.2832 729.688 90.7267ZM752.726 65.1148C754.237 68.5701 755.51 71.9124 756.52 75.0908C753.244 75.8412 749.707 76.4454 745.98 76.8941C747.175 74.994 748.331 73.0702 749.449 71.1239C750.586 69.1455 751.678 67.142 752.726 65.1148V65.1148ZM745.268 68.7034C743.556 71.6875 741.749 74.6149 739.848 77.4811C736.404 77.7259 732.952 77.8475 729.5 77.8457C725.984 77.8457 722.563 77.7358 719.27 77.5214C717.319 74.6619 715.477 71.7293 713.747 68.73H713.748C712.026 65.7465 710.418 62.6985 708.926 59.5926C710.414 56.4859 712.017 53.4365 713.733 50.4508L713.733 50.4512C715.448 47.4647 717.275 44.5447 719.211 41.6974C722.571 41.4423 726.017 41.3094 729.5 41.3094H729.5C732.998 41.3094 736.449 41.4436 739.808 41.7005C741.724 44.5435 743.54 47.4535 745.252 50.4251C746.974 53.4042 748.598 56.4388 750.123 59.5239C748.614 62.6406 746.994 65.7024 745.268 68.7034V68.7034ZM755.225 14.6046C759.009 16.7947 760.48 25.6265 758.103 37.2082C757.951 37.9471 757.781 38.6998 757.595 39.463C752.907 38.3768 747.817 37.5693 742.487 37.0674C739.383 32.63 736.166 28.5958 732.936 25.1033C733.783 24.2845 734.649 23.4868 735.535 22.7112C743.877 15.4255 751.673 12.5487 755.225 14.6046V14.6046ZM729.5 49.3504C735.072 49.3504 739.59 53.8843 739.59 59.477C739.59 65.0696 735.072 69.6035 729.5 69.6035C723.928 69.6035 719.41 65.0696 719.41 59.477C719.41 53.8843 723.928 49.3504 729.5 49.3504V49.3504Z" fill="#00D8FF"/>
</g>
<g clip-path="url(#clip3_1_158)">
<path d="M350.673 268.201C346.603 268.222 343.065 269.193 340.103 270.63C339.016 268.496 337.929 266.595 337.738 265.2C337.525 263.573 337.269 262.58 337.525 260.636C337.781 258.692 338.931 255.924 338.91 255.713C338.889 255.502 338.654 254.509 336.31 254.488C333.966 254.466 331.941 254.931 331.707 255.544C331.472 256.157 331.025 257.551 330.727 258.988C330.322 261.101 326.039 268.644 323.588 272.595C322.799 271.053 322.117 269.701 321.968 268.623C321.755 266.996 321.499 266.003 321.755 264.059C322.011 262.115 323.162 259.348 323.14 259.136C323.119 258.925 322.884 257.932 320.54 257.911C318.196 257.889 316.171 258.354 315.937 258.967C315.703 259.58 315.447 261.016 314.957 262.411C314.467 263.806 308.777 276.399 307.285 279.653C306.682 280.969 306.05 282.273 305.389 283.562C305.389 283.562 305.367 283.625 305.303 283.731C305.095 284.135 304.882 284.536 304.664 284.935V284.956C304.344 285.527 304.003 286.055 303.833 286.055C303.705 286.055 303.471 284.534 303.876 282.463C304.728 278.089 306.752 271.286 306.731 271.053C306.731 270.926 307.115 269.743 305.41 269.13C303.748 268.517 303.151 269.532 303.002 269.532C302.853 269.532 302.746 269.891 302.746 269.891C302.746 269.891 304.6 262.242 299.209 262.242C295.842 262.242 291.196 265.897 288.894 269.193C286.278 270.605 283.664 272.021 281.052 273.441C279.795 274.138 278.495 274.835 277.28 275.49C277.195 275.406 277.11 275.3 277.024 275.216C270.503 268.306 258.442 263.425 258.953 254.15C259.145 250.769 260.317 241.895 282.118 231.119C300.061 222.35 314.339 224.78 316.811 230.168C320.348 237.859 309.161 252.142 290.62 254.213C283.546 254.995 279.837 252.29 278.9 251.276C277.92 250.219 277.77 250.156 277.408 250.367C276.811 250.685 277.195 251.635 277.408 252.185C277.962 253.621 280.242 256.157 284.099 257.404C287.509 258.502 295.799 259.115 305.836 255.269C317.067 250.959 325.847 238.979 323.268 228.942C320.689 218.758 303.641 215.398 287.509 221.082C277.92 224.463 267.52 229.787 260.04 236.718C251.154 244.958 249.747 252.121 250.322 255.122C252.39 265.771 267.201 272.701 273.125 277.835C272.826 278.004 272.549 278.153 272.315 278.28C269.353 279.737 258.058 285.59 255.245 291.781C252.049 298.796 255.757 303.825 258.208 304.501C265.815 306.593 273.636 302.832 277.834 296.619C282.032 290.407 281.521 282.336 279.582 278.638C279.56 278.596 279.539 278.554 279.496 278.512C280.264 278.068 281.052 277.603 281.819 277.159C283.23 276.333 284.658 275.537 286.103 274.771C285.378 276.737 284.845 279.082 284.59 282.463C284.27 286.435 285.911 291.591 288.063 293.619C289.022 294.507 290.152 294.528 290.876 294.528C293.391 294.528 294.521 292.457 295.778 290.006C297.312 287.006 298.697 283.519 298.697 283.519C298.697 283.519 296.971 292.943 301.659 292.943C303.364 292.943 305.09 290.745 305.858 289.626V289.647C305.858 289.647 305.9 289.583 305.986 289.435C306.156 289.161 306.262 288.991 306.262 288.991V288.95C306.944 287.766 308.479 285.083 310.759 280.624C313.7 274.877 316.534 267.694 316.534 267.694C316.534 267.694 316.79 269.447 317.663 272.363C318.175 274.075 319.24 275.955 320.093 277.772C319.411 278.723 318.985 279.251 318.985 279.251L319.006 279.272C318.452 279.991 317.855 280.772 317.195 281.533C314.872 284.28 312.102 287.429 311.718 288.337C311.27 289.414 311.377 290.196 312.23 290.83C312.848 291.295 313.955 291.358 315.085 291.295C317.174 291.147 318.644 290.64 319.368 290.323C320.498 289.922 321.819 289.309 323.055 288.4C325.335 286.731 326.72 284.343 326.592 281.195C326.529 279.463 325.953 277.73 325.25 276.103C325.463 275.807 325.655 275.511 325.868 275.216C329.469 269.996 332.261 264.27 332.261 264.27C332.261 264.27 332.517 266.024 333.39 268.94C333.817 270.419 334.691 272.025 335.458 273.588C332.069 276.314 329.981 279.483 329.235 281.554C327.893 285.4 328.936 287.132 330.919 287.534C331.813 287.724 333.092 287.301 334.03 286.9C335.223 286.52 336.63 285.865 337.972 284.892C340.253 283.224 342.447 280.899 342.32 277.751C342.256 276.314 341.872 274.898 341.339 273.525C344.216 272.342 347.924 271.687 352.655 272.236C362.799 273.419 364.802 279.695 364.418 282.336C364.035 284.977 361.904 286.414 361.201 286.858C360.497 287.302 360.263 287.449 360.327 287.766C360.412 288.231 360.753 288.21 361.35 288.125C362.181 287.978 366.678 285.991 366.869 281.132C367.189 274.92 361.222 268.137 350.673 268.201V268.201ZM272.421 294.359C269.054 297.993 264.366 299.366 262.342 298.204C260.168 296.957 261.02 291.591 265.155 287.745C267.669 285.4 270.908 283.223 273.061 281.892C273.551 281.596 274.276 281.174 275.149 280.646C275.298 280.561 275.384 280.519 275.384 280.519L275.895 280.202C277.408 285.695 275.959 290.534 272.421 294.359V294.359ZM296.929 277.835C295.756 280.667 293.306 287.914 291.814 287.513C290.535 287.175 289.747 281.681 291.558 276.251C292.475 273.525 294.414 270.271 295.543 269.004C297.376 266.975 299.4 266.298 299.89 267.123C300.509 268.201 297.653 276.061 296.929 277.835V277.835ZM317.152 287.428C316.662 287.682 316.193 287.851 315.98 287.724C315.831 287.639 316.193 287.301 316.193 287.301C316.193 287.301 318.729 284.597 319.731 283.371C320.306 282.653 320.988 281.808 321.713 280.857V281.132C321.713 284.365 318.558 286.541 317.152 287.428H317.152ZM332.751 283.9C332.389 283.646 332.453 282.801 333.667 280.16C334.136 279.124 335.244 277.392 337.141 275.723C337.354 276.399 337.504 277.054 337.482 277.666C337.461 281.745 334.52 283.266 332.751 283.9Z" fill="#CD6799"/>
</g>
<g clip-path="url(#clip4_1_158)">
<path d="M1127 75.9061C1127 82.1022 1132.08 87.124 1138.35 87.124H1203.65C1209.92 87.124 1215 82.1015 1215 75.9061V11.3423C1215 5.14589 1209.92 0.124023 1203.65 0.124023H1138.35C1132.08 0.124023 1127 5.14657 1127 11.3419V75.9058V75.9061Z" fill="#563D7C"/>
<path d="M1163.49 38.6072V26.2869H1174.46C1175.51 26.2869 1176.51 26.3729 1177.48 26.5452C1178.45 26.7171 1179.31 27.0244 1180.06 27.4672C1180.8 27.91 1181.4 28.5248 1181.85 29.3115C1182.3 30.0986 1182.52 31.1069 1182.52 32.3361C1182.52 34.5495 1181.85 36.1481 1180.51 37.1316C1179.16 38.1155 1177.45 38.6072 1175.36 38.6072H1163.49V38.6072ZM1151.78 17.2861V69.9619H1177.6C1179.98 69.9619 1182.31 69.6669 1184.57 69.0766C1186.84 68.4863 1188.85 67.5766 1190.62 66.347C1192.38 65.1174 1193.79 63.531 1194.83 61.5885C1195.88 59.6456 1196.4 57.3462 1196.4 54.6904C1196.4 51.3949 1195.59 48.5793 1193.98 46.2432C1192.36 43.9068 1189.91 42.2714 1186.62 41.3369C1189.01 40.2059 1190.82 38.7547 1192.04 36.9842C1193.25 35.2136 1193.86 33.0005 1193.86 30.3443C1193.86 27.8852 1193.45 25.8196 1192.63 24.1472C1191.81 22.4752 1190.65 21.1349 1189.16 20.1265C1187.67 19.1182 1185.88 18.3927 1183.79 17.9502C1181.7 17.5074 1179.39 17.2861 1176.85 17.2861H1151.78V17.2861ZM1163.49 60.9612V46.5011H1176.25C1178.79 46.5011 1180.83 47.0789 1182.37 48.235C1183.91 49.3908 1184.69 51.3211 1184.69 54.0263C1184.69 55.4037 1184.45 56.5347 1183.98 57.42C1183.5 58.3053 1182.87 59.0064 1182.07 59.5226C1181.28 60.0392 1180.36 60.4079 1179.31 60.6295C1178.27 60.8504 1177.17 60.9612 1176.03 60.9612H1163.49V60.9612Z" fill="white"/>
</g>
<path d="M60.8438 252.208C64.6646 236.925 74.2167 229.283 89.5 229.283C112.425 229.283 115.291 246.477 126.753 249.343C134.395 251.253 141.081 248.388 146.812 240.746C142.992 256.029 133.44 263.671 118.156 263.671C95.2313 263.671 92.3656 246.477 80.9031 243.612C73.2615 241.701 66.575 244.567 60.8438 252.208ZM32.1875 286.596C36.0083 271.313 45.5604 263.671 60.8438 263.671C83.7687 263.671 86.6344 280.865 98.0969 283.73C105.739 285.641 112.425 282.775 118.156 275.133C114.335 290.417 104.783 298.058 89.5 298.058C66.575 298.058 63.7094 280.865 52.2469 277.999C44.6052 276.089 37.9187 278.954 32.1875 286.596Z" fill="#44A8B3"/>
<path d="M1014.54 213.729L994.354 204.013C993.214 203.464 991.932 203.282 990.685 203.494C989.437 203.706 988.287 204.301 987.393 205.196L921.33 265.424C920.528 266.151 920.049 267.167 919.996 268.248C919.944 269.329 920.323 270.387 921.05 271.189C921.138 271.283 921.225 271.374 921.32 271.458L926.713 276.358C927.418 276.999 928.325 277.374 929.277 277.416C930.229 277.458 931.166 277.166 931.925 276.589L1011.5 216.249C1012.1 215.793 1012.81 215.514 1013.57 215.443C1014.32 215.372 1015.07 215.512 1015.75 215.847C1016.42 216.183 1016.99 216.7 1017.39 217.341C1017.79 217.982 1018 218.722 1018 219.476V219.242C1018 218.09 1017.67 216.961 1017.06 215.986C1016.45 215.011 1015.57 214.229 1014.54 213.729V213.729Z" fill="#0065A9"/>
<path d="M1014.54 290.519L994.354 300.239C993.214 300.786 991.932 300.967 990.685 300.755C989.438 300.543 988.288 299.949 987.393 299.056L921.33 238.824C920.528 238.097 920.049 237.081 919.996 236C919.944 234.919 920.323 233.861 921.05 233.06C921.138 232.965 921.225 232.874 921.32 232.79L926.713 227.89C927.418 227.246 928.328 226.87 929.282 226.828C930.237 226.785 931.175 227.08 931.935 227.659L1011.5 287.999C1012.1 288.455 1012.81 288.734 1013.57 288.805C1014.32 288.876 1015.07 288.736 1015.75 288.401C1016.42 288.066 1016.99 287.548 1017.39 286.907C1017.79 286.266 1018 285.527 1018 284.772V285.024C1018 286.173 1017.67 287.297 1017.06 288.269C1016.44 289.241 1015.57 290.021 1014.54 290.519V290.519Z" fill="#007ACC"/>
<path d="M994.354 300.239C993.214 300.786 991.932 300.967 990.685 300.755C989.438 300.543 988.287 299.949 987.392 299.056C987.895 299.552 988.533 299.888 989.226 300.023C989.919 300.159 990.637 300.086 991.289 299.815C991.941 299.544 992.499 299.087 992.892 298.5C993.285 297.914 993.497 297.224 993.5 296.518V207.73C993.501 207.021 993.291 206.327 992.897 205.737C992.503 205.147 991.942 204.687 991.287 204.416C990.631 204.144 989.91 204.074 989.214 204.212C988.518 204.351 987.88 204.694 987.378 205.196C988.273 204.301 989.423 203.706 990.67 203.494C991.917 203.281 993.2 203.461 994.34 204.01L1014.52 213.712C1015.56 214.209 1016.44 214.99 1017.05 215.965C1017.67 216.941 1018 218.07 1018 219.224V285.024C1018 286.177 1017.67 287.306 1017.06 288.282C1016.45 289.258 1015.57 290.041 1014.53 290.54L994.354 300.239Z" fill="#1F9CF0"/>
<path d="M454.5 9.62402H559.5V114.624H454.5V9.62402Z" fill="#F5DE19"/>
<path d="M525.034 91.6553C525.928 93.4725 527.318 94.9999 529.043 96.0615C530.768 97.1231 532.758 97.6756 534.784 97.6553C538.871 97.6553 541.485 95.6115 541.485 92.7803C541.485 89.4053 538.8 88.1978 534.3 86.229L531.833 85.1715C524.708 82.1378 519.983 78.339 519.983 70.3065C519.983 62.9078 525.608 57.2715 534.431 57.2715C537.288 57.0653 540.142 57.7045 542.637 59.1096C545.132 60.5147 547.159 62.6235 548.464 65.1728L540.75 70.104C540.248 68.84 539.373 67.7585 538.242 67.0031C537.11 66.2476 535.776 65.8539 534.416 65.874C533.823 65.8146 533.224 65.8795 532.657 66.0645C532.09 66.2495 531.568 66.5505 531.123 66.9485C530.679 67.3464 530.323 67.8325 530.077 68.3758C529.831 68.9191 529.701 69.5077 529.695 70.104C529.695 73.0628 531.529 74.2628 535.763 76.104L538.23 77.1615C546.615 80.7578 551.355 84.4215 551.355 92.6603C551.355 101.544 544.376 106.412 535.005 106.412C531.354 106.644 527.713 105.815 524.522 104.025C521.332 102.234 518.727 99.5582 517.024 96.3203L525.034 91.6553ZM490.178 92.5103C491.726 95.259 493.136 97.584 496.526 97.584C499.766 97.584 501.814 96.3165 501.814 91.3853V57.834H511.68V91.5165C511.68 101.732 505.68 106.382 496.946 106.382C493.859 106.55 490.793 105.781 488.151 104.175C485.51 102.568 483.416 100.2 482.145 97.3815L490.178 92.5103Z" fill="black"/>
<path d="M245.132 109.278L236.71 15.5615H329.29L320.856 109.263L282.944 119.687L245.132 109.278Z" fill="#1572B6"/>
<path d="M283 111.721L313.637 103.298L320.845 23.2259H283V111.721Z" fill="#33A9DC"/>
<path d="M283 57.178H298.338L299.395 45.4082H283V33.9135H312.062L311.785 36.9964L308.939 68.6727H283V57.178V57.178Z" fill="white"/>
<path d="M283.071 87.0285L283.019 87.0433L270.111 83.5849L269.286 74.4182H257.65L259.274 92.4653L283.015 99.0028L283.071 98.988V87.0285V87.0285Z" fill="#EBEBEB"/>
<path d="M297.351 68.1855L295.956 83.5775L283.03 87.0359V98.9954L306.79 92.4653L306.966 90.5241L308.98 68.1855H297.351V68.1855Z" fill="white"/>
<path d="M283.041 33.9135V45.4082H255.044L254.811 42.8237L254.283 36.9964L254.005 33.9135H283.041V33.9135ZM283 57.178V68.6727H270.254L270.021 66.0882L269.496 60.2609L269.219 57.178H283V57.178Z" fill="#EBEBEB"/>
<path d="M22.1325 111.128L13.7062 16.624H106.294L97.8562 111.113L59.9437 121.624L22.1325 111.128Z" fill="#E44F26"/>
<path d="M60 113.592L90.6375 105.098L97.845 24.3528H60V113.592Z" fill="#F1662A"/>
<path d="M60 59.4003H44.6625L43.605 47.5315H60V35.9403H30.9375L31.215 39.0528L34.0613 70.9915H60V59.4003V59.4003ZM60 89.5015L59.9475 89.5165L47.04 86.0328L46.215 76.789H34.5787L36.2025 94.984L59.9475 101.577L60 101.562V89.5015Z" fill="#EBEBEB"/>
<path d="M59.9587 59.4003V70.9915H74.2312L72.8887 86.0253L59.9587 89.5128V101.573L83.7225 94.984L83.895 93.0265L86.6175 62.5128L86.9025 59.4003H59.9587V59.4003ZM59.9587 35.9403V47.5315H87.9562L88.1887 44.929L88.7175 39.0528L88.995 35.9403H59.9587V35.9403Z" fill="white"/>
<g clip-path="url(#clip5_1_158)">
<path d="M744.365 312.869C742.801 312.595 741.181 311.853 740.263 311.032C739.639 310.377 739.283 309.513 739.265 308.609C739.265 307.69 739.734 306.4 740.476 305.114C740.926 304.39 741.279 303.61 741.53 302.789C741.688 302.223 742.018 301.304 742.273 300.719L742.723 299.647L742.839 292.48C742.899 288.517 743.015 284.845 743.113 284.275C743.368 282.633 743.795 281.032 744.361 279.472L744.793 278.437L744.166 278.065C743.6 277.713 743.131 277.225 741.275 275.017C738.991 272.32 735.984 270.835 731.724 270.329C730.336 270.194 728.93 270.093 727.524 270.037C721.273 269.744 717.699 268.435 714.478 265.27C712.074 262.908 710.825 260.152 710.319 256.09C709.636 250.6 708.875 247.788 707.469 245.504C707.122 244.94 706.723 244.41 706.276 243.922L705.71 243.355L704.461 244.158C703.779 244.608 702.819 245.174 702.35 245.429C700.786 246.288 699.301 247.244 697.876 248.279C694.381 250.818 690.571 254.002 688.483 256.09C687.545 257.028 687.058 257.437 686.84 257.399C685.415 257.185 686.506 251.013 688.831 246.363C691.801 240.367 696.8 234.839 702.583 231.108C707.33 228.04 715.006 223.822 718.558 222.337C724.865 219.7 733.029 216.847 738.616 215.324C739.79 214.99 740.51 214.698 740.998 214.368C742.093 213.607 743.165 213.235 744.395 213.217C745.43 213.198 745.528 213.179 746.525 212.512C747.699 211.75 748.048 211.709 749.221 212.122L749.983 212.395L750.92 211.75L751.858 211.124L753.204 211.143C754.239 211.162 754.708 211.124 755.158 210.929C755.724 210.674 755.743 210.637 755.9 209.699C756.253 207.667 756.29 206.65 756.076 205.42C755.803 203.8 755.765 197.512 756.039 196.278C756.331 194.95 756.526 194.677 757.524 194.189C759.009 193.465 760.123 193.252 762.68 193.252C765.804 193.252 767.386 193.683 768.56 194.815C769.614 195.832 769.79 198.213 769.243 203.8C768.909 207.022 768.871 207.922 768.969 210.029C769.006 211.375 769.104 212.647 769.145 212.823C769.224 213.157 769.303 213.175 770.435 213.194C771.549 213.213 771.744 213.273 772.798 213.82C773.814 214.349 774.575 214.994 774.733 215.463C774.751 215.56 774.928 215.56 775.239 215.463C775.843 215.287 776.371 215.482 776.803 216.01C777.058 216.344 777.211 216.4 777.8 216.4C778.603 216.4 778.895 216.595 779.559 217.574C779.869 218.013 780.295 218.358 780.789 218.572C781.884 219.119 783.369 220.642 783.935 221.853C784.813 223.649 784.989 225.738 784.441 227.613C784.246 228.318 784.246 228.337 784.655 229.019C785.514 230.485 785.829 232.282 785.476 233.804L785.281 234.704L785.866 235.289C788.776 238.199 788.345 242.947 784.794 247.184C784.397 247.668 784.062 248.2 783.796 248.767C783.114 250.582 782.33 251.853 781.318 252.907L780.283 253.96H779.229C778.175 253.96 776.69 253.608 775.79 253.139C775.419 252.944 775.4 252.944 775.479 253.177C775.715 254.035 776.3 257.53 776.495 259.465C776.806 262.435 776.709 266.752 776.3 268.608C776.001 269.983 775.501 271.306 774.815 272.534C774.425 273.16 774.406 273.295 774.481 274.057C774.598 275.129 774.346 276.929 773.915 278.118C773.386 279.505 773.191 280.15 773.075 280.852C772.978 281.455 772.978 281.455 773.409 281.455C773.975 281.455 774.286 281.789 774.286 282.453C774.286 282.745 774.031 284.328 773.72 285.948C772.861 290.5 772.801 291.007 772.801 295.42C772.783 299.973 772.783 299.932 773.818 300.614L776.143 302.118C778.143 303.445 780.285 304.546 782.529 305.399C785.791 306.689 786.241 307.019 786.241 308.114C786.241 308.602 786.144 308.778 785.735 309.168C784.486 310.379 782.023 310.653 777.061 310.124C774.483 309.882 771.896 309.759 769.306 309.753C762.47 309.655 761.473 309.419 760.576 307.72C760.07 306.745 760.168 305.474 760.869 303.385C761.18 302.467 761.454 301.529 761.69 300.573C762.159 298.308 761.848 295.612 760.753 292.567L759.815 289.968C758.896 287.332 758.39 282.505 758.938 281.414C759.035 281.2 759.211 281.159 759.68 281.178L760.265 281.238L760.753 280.222C761.124 279.419 761.533 278.894 762.646 277.78L764.071 276.355L763.993 275.437C763.933 274.559 762.781 270.299 762.624 270.318C762.564 270.318 762.253 270.749 761.9 271.293C761.041 272.583 759.148 274.574 758.071 275.298C757.603 275.609 757.213 275.98 757.213 276.1C757.194 276.629 756.744 277.664 756.196 278.384C755.668 279.089 755.63 279.205 755.709 279.828C755.844 280.747 755.551 283.694 755.203 285.239C754.886 286.386 754.454 287.498 753.913 288.558C752.566 291.352 751.55 293.849 751.295 295.004C751.111 296.116 750.993 297.238 750.943 298.364C750.883 299.692 750.748 300.982 750.65 301.255C750.515 301.627 750.515 301.919 750.631 302.485C750.729 302.894 750.789 303.813 750.766 304.537C750.748 305.534 750.826 306.179 751.119 307.349C751.625 309.34 751.723 310.593 751.49 311.335C751.333 311.804 751.179 311.98 750.65 312.235C749.476 312.839 746.158 313.173 744.361 312.862L744.365 312.869ZM749.109 311.268C749.791 311.073 750.38 310.488 750.38 309.959C750.38 309.723 750.185 309.04 749.949 308.437C749.48 307.285 748.678 304.237 748.678 303.73C748.678 303.475 748.696 303.457 749.086 303.67L749.518 303.907V303.359C749.455 302.854 749.343 302.357 749.184 301.874C748.813 300.76 748.775 300.742 746.409 300.603L744.808 300.524L744.223 301.09C743.901 301.421 743.619 301.789 743.383 302.185C743.128 302.692 743.03 303.457 743.188 303.629C743.225 303.689 743.619 303.629 744.046 303.532C744.3 303.456 744.562 303.411 744.826 303.397C744.826 303.415 744.395 303.768 743.851 304.139C741.508 305.898 740.686 306.97 740.686 308.339C740.686 309.764 742.033 310.878 744.144 311.212C745.588 311.425 748.4 311.485 749.105 311.272L749.109 311.268ZM780.886 308.943C781.471 308.238 781.393 307.518 780.65 306.697C780.219 306.265 779.731 305.894 779.184 305.602C778.636 305.309 778.089 304.975 777.541 304.627C776.551 303.985 775.534 303.385 774.493 302.83C773.593 302.343 772.715 301.833 771.856 301.289L771.504 301.015V295.645C771.504 290.354 771.485 290.275 771.211 290.354C769.843 290.725 767.578 290.902 764.709 290.842L761.604 290.804L762.054 291.899C762.894 293.969 763.325 296.744 763.325 299.928C763.325 301.12 763.246 301.548 762.954 302.388C762.796 302.797 762.661 303.209 762.523 303.618C762.463 303.794 762.68 303.929 763.479 304.165C764.064 304.342 764.923 304.518 765.414 304.574L766.314 304.672L766.216 305.572C766.119 306.588 766.235 307.66 766.49 307.994C766.648 308.189 767.233 308.268 769.948 308.384C771.999 308.482 774.226 308.695 775.981 308.95C777.504 309.187 779.146 309.382 779.634 309.382C780.455 309.4 780.534 309.363 780.883 308.95L780.886 308.943ZM749.619 299.804C749.698 299.744 749.814 298.69 749.855 297.442C750.013 293.947 750.148 293.437 751.906 289.492C753.35 286.27 754.115 283.263 754.055 281.133L754.018 279.862L753.47 280.39C752.338 281.523 753.118 279.745 754.468 278.163C755.484 276.952 755.836 276.288 755.99 275.215C756.069 274.784 756.226 274.57 756.89 274.064C759.373 272.188 761.287 269.659 762.418 266.759C762.691 266.054 763.393 263.654 763.981 261.427C765.076 257.305 765.661 255.528 766.19 254.767C766.385 254.474 766.464 254.414 766.426 254.609C766.143 255.656 765.921 256.719 765.763 257.793C765.605 258.749 765.313 260.624 765.118 261.933C764.746 264.61 764.356 266.328 763.828 267.655L763.475 268.555L764.413 270.978C765.388 273.457 765.838 275.257 765.916 276.993L765.976 277.968L765.215 278.125C764.21 278.303 763.314 278.864 762.714 279.689C762.05 280.645 761.679 281.429 761.855 281.602C761.934 281.68 762.89 281.857 763.985 281.992C765.684 282.187 766.329 282.187 768.575 282.052C769.55 282.014 770.51 281.917 771.466 281.778C771.68 281.699 771.898 281.272 772.246 280.158C773.049 277.6 773.203 276.7 773.105 274.904L773.026 273.322L773.435 272.793C774.391 271.582 775.134 269.395 775.445 266.834C775.816 263.71 775.134 257.167 773.863 251.542C773.259 248.864 773.004 247.263 773.004 246.093V245.058L772.048 245.155C768.609 245.527 764.45 245.429 761.911 244.9C760.524 244.627 757.029 243.592 756.268 243.258L755.664 242.984L755.585 243.667C755.525 244.038 755.469 244.409 755.39 244.799C755.274 245.208 755.311 245.305 756.035 246.01C756.935 246.929 757.209 247.398 757.209 248.02C757.209 248.41 756.995 248.725 755.9 249.858C755.115 250.696 754.244 251.448 753.301 252.104L752.03 252.963L751.483 254.857C749.529 261.79 749.158 268.098 750.448 272.609L750.759 273.742L750.133 274.522C747.789 277.469 746.401 279.715 746.188 280.968C746.063 281.585 745.919 282.197 745.756 282.805C745.25 284.74 744.856 287.572 744.684 290.639C744.564 293.207 744.395 295.772 744.178 298.334L744.08 299.095L745.055 299.388C745.603 299.564 746.424 299.759 746.893 299.838C747.77 299.973 749.394 299.935 749.645 299.8L749.619 299.804ZM768.583 289.06C770.105 288.963 771.493 288.727 771.766 288.494C771.883 288.415 772.021 288.007 772.059 287.594L772.156 286.852L770.945 287.125C769.989 287.32 769.033 287.437 768.073 287.515C765.766 287.613 763.445 287.553 761.158 287.32C760.396 287.204 760.396 287.204 760.629 288.198C760.824 288.94 760.865 288.978 762.856 289.117C764.184 289.233 766.04 289.214 768.579 289.057L768.583 289.06ZM767.311 285.663C769.303 285.487 771.785 285.059 772.273 284.804C772.43 284.725 772.565 284.433 772.625 284.099L772.801 283.064L772.899 282.577L772.411 282.674C770.244 283.124 768.601 283.259 765.32 283.259C762.118 283.259 761.746 283.24 760.906 282.948C760.583 282.812 760.24 282.732 759.89 282.712C759.755 282.79 759.733 283.904 759.853 284.684C759.931 285.153 760.01 285.232 760.479 285.367C761.964 285.775 764.465 285.873 767.315 285.64L767.311 285.663ZM731.064 268.045C736.063 266.602 742.606 262.36 747.958 257.05C749.698 255.31 749.911 255.078 750.144 254.298L750.455 253.3C750.493 253.222 750.181 253.087 749.773 252.989C748.7 252.734 747.879 252.112 747.879 251.545C747.879 251.212 747.684 250.882 747.118 250.274C746.199 249.239 745.966 248.789 745.869 247.795L745.79 246.993L744.695 246.213C744.069 245.763 741.883 244.552 739.558 243.382C737.787 242.518 736.054 241.58 734.364 240.569C732.41 239.26 731.101 237.697 730.359 235.844C730.224 235.473 730.048 235.162 729.988 235.162C729.83 235.162 725.435 239.399 723.56 241.39C718.933 246.273 715.749 250.51 713.735 254.437C713.229 255.412 712.681 256.567 712.524 256.994L712.231 257.774L712.584 259.083C712.798 259.788 713.248 260.939 713.6 261.622C714.83 264.044 716.296 265.507 718.719 266.699C721.318 267.989 723.62 268.439 727.468 268.379C729.538 268.36 730.145 268.3 731.06 268.027L731.064 268.045ZM691.61 250.915C694.891 248.005 699.421 244.822 704.971 241.522C708.605 239.354 722.649 232.323 729.114 229.45C730.288 228.922 731.341 228.434 731.458 228.378C731.574 228.299 731.908 227.459 732.219 226.522C733.588 222.187 734.27 221.328 736.749 220.762C737.06 220.683 737.139 220.585 737.139 220.274C737.139 219.708 737.529 218.399 737.863 217.814C738.118 217.364 738.118 217.345 737.9 217.405C737.765 217.443 736.944 217.679 736.085 217.934C724.171 221.373 713.761 225.94 704.776 231.644C695.188 237.738 689.66 245.043 688.059 253.792L687.943 254.437L689.116 253.285C689.743 252.64 690.875 251.587 691.618 250.942L691.61 250.915ZM779.99 252.577C780.946 252.089 782.431 249.843 782.979 248.065C783.136 247.439 783.448 246.854 783.898 246.367C785.341 244.765 786.534 241.855 786.553 239.864C786.553 236.759 784.794 235.567 782.236 236.894C781.903 237.052 781.633 237.168 781.591 237.13C781.456 236.995 782.176 236.29 783.058 235.743C784.209 234.982 784.426 234.532 784.426 232.912C784.443 231.602 784.054 230.32 783.313 229.24C782.96 228.712 782.825 228.363 782.881 228.145L783.234 226.837C783.721 225.097 783.545 223.105 782.784 221.838C781.651 219.925 780.264 218.988 778.329 218.83L777.196 218.752L777.86 219.494C779.833 221.624 780.789 224.298 780.399 226.585C780.204 227.759 780.028 227.992 778.895 228.442L778.231 228.715L778.31 229.615C778.445 231.082 778.194 232.154 777.256 234.127C776.788 235.124 776.435 236.02 776.476 236.118C776.593 236.452 777.883 237.074 778.899 237.329L779.896 237.565L779.27 237.779C778.449 238.034 778.273 238.405 778.273 239.752C778.273 240.982 778.449 241.492 779.345 242.838C779.754 243.423 780.028 244.03 780.069 244.379C780.148 244.927 780.129 244.964 779.679 245.122C779.169 245.265 778.644 245.35 778.115 245.377C776.278 245.493 776.143 245.553 775.321 246.333C774.579 247.038 774.56 247.075 774.56 247.855C774.56 248.928 774.969 251.099 775.224 251.392C775.558 251.744 777.41 252.663 778.134 252.798C778.758 252.954 779.418 252.879 779.99 252.584V252.577ZM752.938 251.114C754.13 250.177 755.068 249.239 755.593 248.437C755.926 247.949 755.945 247.852 755.788 247.439C755.514 246.813 753.718 245.193 752.72 244.705C752.055 244.407 751.352 244.204 750.631 244.102L749.401 243.944L748.64 242.988C747.058 241.034 746.18 239.512 744.928 236.56C743.833 234.059 742.876 232.597 741.354 231.149C740.728 230.564 740.281 230.077 740.319 230.077C740.398 230.077 741.14 230.448 741.999 230.898C743.424 231.659 743.6 231.719 744.245 231.622C746.57 231.348 748.621 228.674 749.364 224.924C749.578 223.87 750.009 222.794 750.459 222.149C750.478 222.13 751.378 222.715 752.431 223.477C755.109 225.37 755.694 225.663 757.216 225.723C758.214 225.76 758.78 225.685 760.576 225.254C764.405 224.317 768.545 223.945 771.065 224.279C772.49 224.474 774.541 225.1 776.064 225.82C777.568 226.525 777.86 226.563 778.348 226.132C778.756 225.779 778.756 225.723 778.756 224.414C778.738 222.479 778.033 220.39 776.96 219.142C776.413 218.497 774.871 217.443 773.345 216.64C772.802 216.352 772.262 216.06 771.725 215.763C771.001 215.332 770.184 215.392 767.956 215.977C765.376 216.64 764.694 216.64 761.746 215.879C759.245 215.253 759.091 215.234 756.628 215.624C755.319 215.819 752.038 215.703 750.943 215.41C750.395 215.253 749.848 215.099 749.323 214.904C748.366 214.533 746.705 214.473 745.201 214.747C742.213 215.275 739.948 216.895 739.126 219.1C738.695 220.214 738.755 220.743 739.321 221.092C740.221 221.658 741.41 223.203 741.41 223.807C741.41 223.844 741.118 223.593 740.784 223.24C739.944 222.363 739.183 221.969 738.283 221.969C737.7 221.985 737.134 222.164 736.648 222.484C736.161 222.805 735.774 223.255 735.53 223.784C735.267 224.474 735.046 225.179 734.866 225.895C734.319 227.887 733.831 228.944 732.796 230.35C731.878 231.622 731.743 232.188 732.073 233.613C732.894 237.205 734.319 238.653 740.274 242.032C743.398 243.809 744.999 244.807 746.173 245.684C747.073 246.348 747.091 246.389 747.013 246.895C746.836 248.069 747.579 249.337 749.045 250.372C749.416 250.627 749.649 250.9 749.649 251.095C749.649 251.448 750.646 251.935 751.366 251.935C751.775 251.935 752.09 251.759 752.93 251.114H752.938ZM777.02 244.529C779.285 244.608 779.401 244.432 778.194 243.025C776.923 241.559 776.574 240.37 777.043 239.062L777.238 238.555L776.435 238.165C776.161 238.03 775.888 237.892 775.614 237.794C775.479 238.323 775.34 238.829 775.224 239.358C774.931 240.55 774.579 243.637 774.56 244.945C774.56 245.062 774.755 245.024 775.089 244.81C775.558 244.537 775.794 244.499 777.024 244.537L777.02 244.529ZM769.423 244.413C770.791 244.334 772.198 244.237 772.569 244.177L773.251 244.079L773.33 241.833C773.446 238.63 773.915 236.737 775.303 233.707C776.278 231.558 776.709 229.683 776.495 228.277C776.416 227.673 776.379 227.632 775.558 227.279C774.054 226.682 772.488 226.255 770.889 226.008C769.348 225.794 764.814 225.91 763.115 226.244C762.41 226.36 761.124 226.634 760.265 226.848C758.135 227.335 757.003 227.279 755.383 226.574C753.781 225.869 752.765 225.228 751.809 224.328C751.048 223.623 750.969 223.585 750.774 223.822C750.616 223.998 750.538 224.527 750.481 225.659C750.421 227.399 750.148 228.314 749.386 229.544C749.217 229.797 749.073 230.066 748.955 230.347C748.955 230.407 749.54 231.089 750.264 231.832C752.765 234.43 753.995 235.094 755.968 234.955C756.613 234.895 757.063 234.918 757.063 234.993C757.063 235.15 755.791 236.144 755.266 236.418C755.011 236.553 754.955 236.692 754.993 236.984L755.304 239.035C755.48 240.209 755.615 240.753 755.791 240.91C756.26 241.3 758.683 242.553 760.205 243.175C762.196 243.978 763.291 244.27 764.814 244.405C766.689 244.563 766.726 244.563 769.423 244.405V244.413ZM753.271 242.264C753.309 242.204 753.174 241.072 752.919 239.763C752.608 237.985 752.431 237.34 752.236 237.164C752.101 237.048 751.378 236.538 750.654 236.013C749.703 235.329 748.802 234.578 747.958 233.767L746.611 232.439L745.888 232.81L745.126 233.219C745.19 233.524 745.295 233.819 745.438 234.097C745.651 234.565 746.083 235.717 746.394 236.654C747.215 239.095 747.86 240.269 749.48 242.395L750.084 243.198L751.235 243.374C751.88 243.472 752.525 243.61 752.701 243.667C752.975 243.783 753.013 243.727 753.091 243.1C753.129 242.827 753.189 242.534 753.268 242.26L753.271 242.264ZM778.018 217.968C779.015 217.87 779.191 217.732 778.76 217.285C778.486 217.012 777.86 216.993 777.354 217.225C777.02 217.383 776.945 217.342 776.416 216.775C775.869 216.172 775.831 216.149 775.145 216.228C774.519 216.307 774.421 216.288 774.343 216.033C774.099 215.614 773.795 215.232 773.443 214.9C772.999 214.396 772.444 214.002 771.823 213.749C770.611 213.28 769.929 213.34 768.774 213.985C765.433 215.8 765.571 215.782 762.346 214.96C759.339 214.199 757.093 213.419 756.369 212.928C755.765 212.519 754.475 212.069 753.399 211.93C752.596 211.814 752.09 211.99 751.329 212.613L750.92 212.947L751.291 213.592C751.798 214.492 751.741 214.548 750.98 213.884C750.159 213.202 749.184 212.733 748.558 212.71C748.108 212.71 746.78 213.295 746.623 213.55C746.563 213.629 746.975 213.727 747.523 213.764C748.089 213.824 748.869 214.019 749.398 214.233C750.766 214.818 751.468 215.013 752.716 215.133C754.085 215.268 756.564 215.114 756.856 214.878C757.014 214.743 757.441 214.72 758.341 214.799C759.534 214.878 760.021 214.994 762.853 215.755C764.495 216.205 765.646 216.164 767.6 215.639C768.5 215.384 769.633 215.133 770.101 215.073C770.904 214.994 771.058 215.035 772.31 215.602C774.301 216.502 775.359 217.068 775.944 217.593C776.529 218.099 776.608 218.099 778.014 217.983L778.018 217.968ZM766.884 214.552L768.076 213.925L768.039 212.714C768.02 211.874 767.979 211.053 767.941 210.235L767.844 208.987L766.651 209.905C765.946 210.453 765.264 210.862 764.971 210.922C764.113 211.079 759.875 210.922 759.481 210.708C758.957 210.32 758.466 209.889 758.015 209.418L756.92 208.304L756.901 208.968C756.901 209.32 756.864 209.924 756.785 210.295C756.688 211 756.688 211.019 757.449 211.975C757.858 212.504 758.191 212.973 758.191 213.029C758.191 213.4 763.835 215.159 765.106 215.178C765.515 215.178 766.025 215.002 766.884 214.552V214.552ZM764.619 210.115C766.025 209.842 766.708 208.825 767.236 206.249C767.784 203.474 768.058 199.12 767.803 197.264C767.566 195.584 765.691 194.842 762.118 194.958C759.89 195.037 758.971 195.25 758.21 195.895C757.741 196.285 757.741 196.327 757.528 198.179C757.138 201.734 757.723 206.793 758.739 208.687C759.226 209.605 759.658 209.935 760.554 210.093C761.57 210.269 763.738 210.269 764.615 210.112L764.619 210.115Z" fill="black"/>
</g>
<path d="M988.926 70.5384C992.597 70.1608 995.382 67.0162 995.255 63.2422C995.129 59.4686 991.964 56.4494 988.166 56.4494H987.913C983.989 56.5753 980.951 59.8458 981.078 63.7453C981.204 65.6323 981.963 67.2675 983.103 68.3997C978.799 76.828 972.216 82.9918 962.343 88.1493C955.634 91.6715 948.671 92.9295 941.709 92.0491C936.013 91.2943 931.582 88.7786 928.797 84.627C924.746 78.4633 924.367 71.796 927.785 65.1292C930.19 60.3489 933.987 56.8267 936.392 55.0655C935.886 53.4303 935.126 50.6629 934.747 48.6504C916.392 61.8587 918.291 79.7213 923.86 88.1493C928.038 94.4393 936.519 98.3388 945.887 98.3388C948.418 98.3388 950.95 98.087 953.482 97.4584C969.685 94.3134 981.964 84.7529 988.926 70.5384ZM1011.21 54.9401C1001.58 43.7443 987.407 37.5806 971.204 37.5806H969.179C968.039 35.3163 965.634 33.8066 962.976 33.8066H962.722C958.799 33.9325 955.761 37.203 955.887 41.1028C956.014 44.8764 959.178 47.8956 962.976 47.8956H963.229C966.014 47.7697 968.419 46.0086 969.432 43.6184H971.71C981.331 43.6184 990.445 46.3858 998.673 51.7951C1005 55.9463 1009.56 61.3556 1012.09 67.8965C1014.24 73.1799 1014.12 78.3374 1011.84 82.7404C1008.29 89.4073 1002.34 93.0554 994.496 93.0554C989.432 93.0554 984.622 91.5456 982.09 90.4135C980.698 91.6715 978.166 93.684 976.394 94.9424C981.837 97.458 987.407 98.8419 992.724 98.8419C1004.88 98.8419 1013.86 92.1746 1017.28 85.5078C1020.95 78.2115 1020.7 65.6323 1011.21 54.9401ZM946.899 72.6764C947.026 76.4504 950.19 79.4691 953.988 79.4691H954.241C958.166 79.3436 961.203 76.0728 961.077 72.1733C960.95 68.3993 957.785 65.3805 953.988 65.3805H953.735C953.482 65.3805 953.102 65.3805 952.849 65.506C947.659 56.9522 945.507 47.6438 946.267 37.5802C946.772 30.0326 949.304 23.4912 953.735 18.082C957.406 13.4276 964.495 11.1634 969.305 11.0379C982.723 10.7861 988.419 27.3907 988.799 34.058C990.445 34.4352 993.23 35.316 995.129 35.945C993.609 15.5667 980.951 5 968.799 5C957.406 5 946.899 13.1766 942.722 25.2527C936.899 41.3542 940.696 56.8267 947.785 69.0287C947.153 69.909 946.772 71.2925 946.899 72.6764Z" fill="#764ABC"/>
<defs>
<clipPath id="clip0_1_158">
<rect width="88" height="88" fill="white" transform="translate(1118 229.124)"/>
</clipPath>
<clipPath id="clip1_1_158">
<rect width="105" height="105" fill="white" transform="translate(479 200.124)"/>
</clipPath>
<clipPath id="clip2_1_158">
<rect width="113" height="101" fill="white" transform="translate(673 9.12402)"/>
</clipPath>
<clipPath id="clip3_1_158">
<rect width="117" height="87" fill="white" transform="translate(250 218.124)"/>
</clipPath>
<clipPath id="clip4_1_158">
<rect width="88" height="87" fill="white" transform="translate(1127 0.124023)"/>
</clipPath>
<clipPath id="clip5_1_158">
<rect width="120" height="120" fill="white" transform="translate(677 193.124)"/>
</clipPath>
</defs>
</svg>
