<svg width="1215" height="394" viewBox="0 0 1215 394" fill="none" xmlns="http://www.w3.org/2000/svg">
<path fill-rule="evenodd" clip-rule="evenodd" d="M1162 296C1137.69 296 1118 315.69 1118 340C1118 359.47 1130.6 375.915 1148.09 381.745C1150.29 382.13 1151.11 380.81 1151.11 379.655C1151.11 378.61 1151.06 375.145 1151.06 371.46C1140 373.495 1137.14 368.765 1136.26 366.29C1135.77 365.025 1133.62 361.12 1131.75 360.075C1130.21 359.25 1128.01 357.215 1131.69 357.16C1135.16 357.105 1137.64 360.35 1138.46 361.67C1142.42 368.325 1148.74 366.455 1151.28 365.3C1151.66 362.44 1152.82 360.515 1154.08 359.415C1144.29 358.315 1134.06 354.52 1134.06 337.69C1134.06 332.905 1135.77 328.945 1138.57 325.865C1138.13 324.765 1136.59 320.255 1139.01 314.205C1139.01 314.205 1142.69 313.05 1151.11 318.715C1154.63 317.725 1158.37 317.23 1162.11 317.23C1165.85 317.23 1169.59 317.725 1173.11 318.715C1181.53 312.995 1185.21 314.205 1185.21 314.205C1187.63 320.255 1186.09 324.765 1185.65 325.865C1188.46 328.945 1190.16 332.85 1190.16 337.69C1190.16 354.575 1179.88 358.315 1170.09 359.415C1171.68 360.79 1173.06 363.43 1173.06 367.555C1173.06 373.44 1173 378.17 1173 379.655C1173 380.81 1173.83 382.185 1176.03 381.745C1184.76 378.796 1192.35 373.182 1197.73 365.694C1203.1 358.205 1206 349.219 1206 340C1206 315.69 1186.31 296 1162 296Z" fill="black"/>
<g clip-path="url(#clip0_1_158)">
<path d="M582.02 314.822L536.176 268.98C533.537 266.34 529.255 266.34 526.613 268.98L517.094 278.5L529.17 290.576C531.976 289.628 535.194 290.264 537.431 292.501C539.679 294.752 540.311 297.998 539.339 300.813L550.978 312.452C553.793 311.482 557.042 312.109 559.291 314.362C562.434 317.504 562.434 322.596 559.291 325.74C556.147 328.884 551.055 328.884 547.91 325.74C545.545 323.373 544.961 319.901 546.158 316.989L535.305 306.135L535.303 334.697C536.09 335.086 536.809 335.6 537.431 336.219C540.574 339.361 540.574 344.453 537.431 347.599C534.287 350.742 529.193 350.742 526.054 347.599C522.911 344.453 522.911 339.361 526.054 336.219C526.807 335.466 527.702 334.869 528.687 334.463V305.635C527.7 305.232 526.805 304.635 526.054 303.879C523.672 301.501 523.1 298.007 524.32 295.083L512.415 283.177L480.981 314.61C478.34 317.252 478.34 321.535 480.981 324.175L526.826 370.018C529.465 372.658 533.746 372.658 536.389 370.018L582.019 324.388C584.66 321.747 584.66 317.462 582.019 314.822" fill="#DE4C36"/>
</g>
<g clip-path="url(#clip1_1_158)">
<path d="M765.906 108.703C764.703 108.289 763.49 107.905 762.269 107.552C762.474 106.711 762.663 105.879 762.831 105.062C765.584 91.6483 763.784 80.8418 757.636 77.2837C751.742 73.8728 742.102 77.4295 732.366 85.9334C731.406 86.773 730.468 87.6368 729.552 88.524C728.939 87.934 728.315 87.3555 727.68 86.7888C717.477 77.6961 707.249 73.8639 701.108 77.4321C695.219 80.8537 693.475 91.0126 695.954 103.725C696.2 104.984 696.479 106.237 696.789 107.482C695.341 107.895 693.944 108.334 692.607 108.802C680.644 112.988 673.005 119.548 673.005 126.353C673.005 133.381 681.206 140.43 693.666 144.704C694.676 145.049 695.695 145.369 696.721 145.663C696.388 147.004 696.092 148.354 695.834 149.711C693.471 162.203 695.316 172.122 701.189 175.522C707.255 179.033 717.437 175.425 727.351 166.727C728.154 166.02 728.941 165.292 729.708 164.546C730.7 165.507 731.719 166.439 732.763 167.343C742.366 175.636 751.85 178.985 757.718 175.576C763.778 172.055 765.748 161.399 763.191 148.436C762.989 147.42 762.763 146.409 762.513 145.405C763.228 145.192 763.93 144.973 764.614 144.746C777.567 140.438 785.995 133.475 785.995 126.353C785.995 119.523 778.109 112.919 765.906 108.703V108.703ZM763.096 140.147C762.478 140.352 761.844 140.55 761.198 140.743C759.768 136.199 757.839 131.368 755.477 126.376C757.73 121.504 759.586 116.734 760.976 112.22C762.132 112.556 763.253 112.91 764.335 113.283C774.791 116.896 781.169 122.237 781.169 126.353C781.169 130.737 774.281 136.428 763.096 140.147V140.147ZM758.456 149.376C759.586 155.109 759.748 160.292 758.999 164.344C758.326 167.984 756.973 170.411 755.299 171.384C751.738 173.453 744.123 170.764 735.911 163.671C734.94 162.83 733.993 161.963 733.07 161.07C736.254 157.576 739.436 153.513 742.541 149.001C748.004 148.514 753.164 147.719 757.844 146.633C758.069 147.543 758.273 148.457 758.456 149.376V149.376ZM711.526 171.026C708.047 172.259 705.276 172.295 703.601 171.325C700.037 169.262 698.555 161.298 700.576 150.615C700.816 149.353 701.092 148.097 701.401 146.85C706.029 147.878 711.152 148.617 716.627 149.062C719.754 153.478 723.028 157.536 726.327 161.089C725.626 161.77 724.908 162.434 724.174 163.079C719.79 166.925 715.397 169.654 711.526 171.026V171.026ZM695.228 140.12C689.718 138.23 685.168 135.774 682.049 133.093C679.247 130.685 677.832 128.293 677.832 126.353C677.832 122.223 683.966 116.956 694.196 113.377C695.438 112.942 696.737 112.533 698.086 112.148C699.5 116.764 701.354 121.59 703.593 126.471C701.325 131.423 699.444 136.327 698.016 140.997C697.08 140.728 696.15 140.435 695.228 140.12V140.12ZM700.691 102.795C698.568 91.903 699.978 83.687 703.527 81.6249C707.307 79.4286 715.665 82.5601 724.475 90.4115C725.05 90.9246 725.615 91.4482 726.171 91.9819C722.888 95.52 719.644 99.548 716.545 103.937C711.231 104.431 706.145 105.225 701.468 106.289C701.18 105.131 700.921 103.966 700.691 102.795V102.795ZM749.43 114.874C748.325 112.959 747.18 111.068 745.994 109.202C749.599 109.66 753.053 110.267 756.297 111.01C755.323 114.143 754.109 117.417 752.681 120.775C751.636 118.787 750.553 116.819 749.43 114.874V114.874ZM729.554 95.4442C731.781 97.8651 734.01 100.568 736.204 103.5C731.755 103.289 727.298 103.289 722.849 103.498C725.044 100.592 727.293 97.893 729.554 95.4442ZM709.551 114.907C708.442 116.837 707.379 118.792 706.361 120.771C704.956 117.425 703.753 114.135 702.771 110.958C705.995 110.235 709.433 109.643 713.015 109.194C711.816 111.07 710.661 112.975 709.551 114.907V114.907ZM713.118 143.857C709.417 143.442 705.927 142.881 702.704 142.177C703.702 138.943 704.931 135.583 706.367 132.165C707.389 134.146 708.457 136.103 709.57 138.033C710.715 140.018 711.9 141.961 713.118 143.857ZM729.688 157.603C727.4 155.125 725.118 152.385 722.889 149.437C725.053 149.522 727.258 149.566 729.5 149.566C731.803 149.566 734.08 149.514 736.321 149.414C734.12 152.414 731.899 155.159 729.688 157.603ZM752.726 131.991C754.237 135.446 755.51 138.788 756.52 141.967C753.244 142.717 749.707 143.321 745.98 143.77C747.175 141.87 748.331 139.946 749.449 138C750.586 136.021 751.678 134.018 752.726 131.991V131.991ZM745.268 135.579C743.556 138.563 741.749 141.491 739.848 144.357C736.404 144.602 732.952 144.723 729.5 144.722C725.984 144.722 722.563 144.612 719.27 144.397C717.319 141.538 715.477 138.605 713.747 135.606H713.748C712.026 132.622 710.418 129.574 708.926 126.468C710.414 123.362 712.017 120.312 713.733 117.327L713.733 117.327C715.448 114.341 717.275 111.421 719.211 108.573C722.571 108.318 726.017 108.185 729.5 108.185H729.5C732.998 108.185 736.449 108.32 739.808 108.576C741.724 111.419 743.54 114.329 745.252 117.301C746.974 120.28 748.598 123.315 750.123 126.4C748.614 129.517 746.994 132.578 745.268 135.579V135.579ZM755.225 81.4805C759.009 83.6706 760.48 92.5024 758.103 104.084C757.951 104.823 757.781 105.576 757.595 106.339C752.907 105.253 747.817 104.445 742.487 103.943C739.383 99.5059 736.166 95.4717 732.936 91.9792C733.782 91.1604 734.649 90.3628 735.535 89.5871C743.877 82.3014 751.673 79.4247 755.225 81.4805V81.4805ZM729.5 116.226C735.072 116.226 739.59 120.76 739.59 126.353C739.59 131.946 735.072 136.479 729.5 136.479C723.928 136.479 719.41 131.946 719.41 126.353C719.41 120.76 723.928 116.226 729.5 116.226V116.226Z" fill="#00D8FF"/>
</g>
<g clip-path="url(#clip2_1_158)">
<path d="M350.673 335.077C346.603 335.097 343.065 336.069 340.103 337.506C339.016 335.372 337.929 333.471 337.738 332.076C337.525 330.449 337.269 329.456 337.525 327.512C337.781 325.568 338.931 322.8 338.91 322.589C338.889 322.378 338.654 321.385 336.31 321.364C333.966 321.342 331.941 321.807 331.707 322.42C331.472 323.033 331.025 324.427 330.727 325.864C330.322 327.977 326.039 335.52 323.588 339.471C322.799 337.929 322.117 336.576 321.968 335.499C321.755 333.872 321.499 332.879 321.755 330.935C322.011 328.991 323.162 326.223 323.14 326.012C323.119 325.801 322.884 324.807 320.54 324.787C318.196 324.765 316.171 325.23 315.937 325.843C315.703 326.456 315.447 327.892 314.957 329.287C314.467 330.682 308.777 343.275 307.285 346.528C306.682 347.845 306.05 349.149 305.389 350.438C305.389 350.438 305.367 350.501 305.303 350.607C305.095 351.011 304.882 351.412 304.664 351.811V351.832C304.344 352.403 304.003 352.931 303.833 352.931C303.705 352.931 303.471 351.409 303.876 349.339C304.728 344.965 306.752 338.161 306.731 337.929C306.731 337.802 307.115 336.619 305.41 336.006C303.748 335.393 303.151 336.407 303.002 336.407C302.853 336.407 302.746 336.767 302.746 336.767C302.746 336.767 304.6 329.118 299.209 329.118C295.842 329.118 291.196 332.773 288.894 336.069C286.278 337.481 283.664 338.897 281.052 340.317C279.795 341.014 278.495 341.711 277.28 342.366C277.195 342.282 277.11 342.176 277.024 342.091C270.503 335.182 258.442 330.301 258.953 321.026C259.145 317.645 260.317 308.77 282.118 297.995C300.061 289.226 314.339 291.655 316.811 297.044C320.348 304.735 309.161 319.018 290.62 321.089C283.546 321.871 279.837 319.166 278.9 318.152C277.92 317.095 277.77 317.032 277.408 317.243C276.811 317.561 277.195 318.511 277.408 319.06C277.962 320.497 280.242 323.033 284.099 324.28C287.509 325.378 295.799 325.991 305.836 322.145C317.067 317.835 325.847 305.855 323.268 295.818C320.689 285.634 303.641 282.274 287.509 287.958C277.92 291.339 267.52 296.663 260.04 303.594C251.154 311.834 249.747 318.997 250.322 321.998C252.39 332.646 267.201 339.577 273.125 344.711C272.826 344.88 272.549 345.029 272.315 345.155C269.353 346.613 258.058 352.466 255.245 358.657C252.049 365.672 255.757 370.701 258.208 371.376C265.815 373.469 273.636 369.708 277.834 363.495C282.032 357.283 281.521 349.212 279.582 345.514C279.56 345.472 279.539 345.43 279.496 345.387C280.264 344.944 281.052 344.479 281.819 344.035C283.23 343.209 284.658 342.413 286.103 341.647C285.378 343.613 284.845 345.958 284.59 349.339C284.27 353.311 285.911 358.466 288.063 360.495C289.022 361.383 290.152 361.404 290.876 361.404C293.391 361.404 294.521 359.333 295.778 356.882C297.312 353.882 298.697 350.395 298.697 350.395C298.697 350.395 296.971 359.819 301.659 359.819C303.364 359.819 305.09 357.621 305.858 356.502V356.523C305.858 356.523 305.9 356.459 305.986 356.311C306.156 356.037 306.262 355.867 306.262 355.867V355.826C306.944 354.642 308.479 351.959 310.759 347.5C313.7 341.753 316.534 334.57 316.534 334.57C316.534 334.57 316.79 336.323 317.663 339.239C318.175 340.95 319.24 342.831 320.093 344.648C319.411 345.599 318.985 346.127 318.985 346.127L319.006 346.148C318.452 346.866 317.855 347.648 317.195 348.409C314.872 351.156 312.102 354.304 311.718 355.213C311.27 356.29 311.377 357.072 312.23 357.706C312.848 358.171 313.955 358.234 315.085 358.171C317.174 358.023 318.644 357.516 319.368 357.199C320.498 356.798 321.819 356.185 323.055 355.276C325.335 353.607 326.72 351.219 326.592 348.071C326.529 346.339 325.953 344.606 325.25 342.979C325.463 342.683 325.655 342.387 325.868 342.091C329.469 336.872 332.261 331.146 332.261 331.146C332.261 331.146 332.517 332.9 333.39 335.816C333.817 337.295 334.691 338.901 335.458 340.464C332.069 343.19 329.981 346.359 329.235 348.43C327.893 352.276 328.936 354.008 330.919 354.41C331.813 354.6 333.092 354.177 334.03 353.776C335.223 353.396 336.63 352.741 337.972 351.768C340.253 350.099 342.447 347.775 342.32 344.627C342.256 343.19 341.872 341.774 341.339 340.401C344.216 339.218 347.924 338.563 352.655 339.112C362.799 340.295 364.802 346.571 364.418 349.212C364.035 351.853 361.904 353.29 361.201 353.734C360.497 354.178 360.263 354.325 360.327 354.642C360.412 355.107 360.753 355.086 361.35 355.001C362.181 354.854 366.678 352.867 366.869 348.007C367.189 341.796 361.222 335.013 350.673 335.077V335.077ZM272.421 361.235C269.054 364.869 264.366 366.242 262.342 365.08C260.168 363.833 261.02 358.466 265.155 354.621C267.669 352.276 270.908 350.099 273.061 348.768C273.551 348.472 274.276 348.05 275.149 347.522C275.298 347.437 275.384 347.395 275.384 347.395L275.895 347.078C277.408 352.571 275.959 357.41 272.421 361.235V361.235ZM296.929 344.711C295.756 347.543 293.306 354.79 291.814 354.389C290.535 354.051 289.747 348.557 291.558 343.127C292.475 340.401 294.414 337.147 295.543 335.88C297.376 333.851 299.4 333.174 299.89 333.999C300.509 335.077 297.653 342.936 296.929 344.711V344.711ZM317.152 354.304C316.662 354.558 316.193 354.727 315.98 354.6C315.831 354.515 316.193 354.177 316.193 354.177C316.193 354.177 318.729 351.473 319.731 350.247C320.306 349.529 320.988 348.684 321.713 347.733V348.007C321.713 351.24 318.558 353.417 317.152 354.304H317.152ZM332.751 350.776C332.389 350.522 332.453 349.677 333.667 347.035C334.136 346 335.244 344.268 337.141 342.598C337.354 343.275 337.504 343.93 337.482 344.542C337.461 348.621 334.52 350.142 332.751 350.776Z" fill="#CD6799"/>
</g>
<g clip-path="url(#clip3_1_158)">
<path d="M1127 142.782C1127 148.978 1132.08 154 1138.35 154H1203.65C1209.92 154 1215 148.977 1215 142.782V78.2182C1215 72.0218 1209.92 66.9999 1203.65 66.9999H1138.35C1132.08 66.9999 1127 72.0225 1127 78.2178V142.782V142.782Z" fill="#563D7C"/>
<path d="M1163.49 105.483V93.1628H1174.46C1175.51 93.1628 1176.51 93.2488 1177.48 93.4211C1178.45 93.5931 1179.31 93.9003 1180.06 94.3431C1180.8 94.7859 1181.4 95.4007 1181.85 96.1874C1182.3 96.9745 1182.52 97.9828 1182.52 99.212C1182.52 101.425 1181.85 103.024 1180.51 104.008C1179.16 104.991 1177.45 105.483 1175.36 105.483H1163.49V105.483ZM1151.78 84.162V136.838H1177.6C1179.98 136.838 1182.31 136.543 1184.57 135.953C1186.84 135.362 1188.85 134.452 1190.62 133.223C1192.38 131.993 1193.79 130.407 1194.83 128.464C1195.88 126.522 1196.4 124.222 1196.4 121.566C1196.4 118.271 1195.59 115.455 1193.98 113.119C1192.36 110.783 1189.91 109.147 1186.62 108.213C1189.01 107.082 1190.82 105.631 1192.04 103.86C1193.25 102.089 1193.86 99.8764 1193.86 97.2202C1193.86 94.7611 1193.45 92.6955 1192.63 91.0232C1191.81 89.3511 1190.65 88.0108 1189.16 87.0025C1187.67 85.9941 1185.88 85.2686 1183.79 84.8261C1181.7 84.3833 1179.39 84.162 1176.85 84.162H1151.78V84.162ZM1163.49 127.837V113.377H1176.25C1178.79 113.377 1180.83 113.955 1182.37 115.111C1183.91 116.267 1184.69 118.197 1184.69 120.902C1184.69 122.28 1184.45 123.411 1183.98 124.296C1183.5 125.181 1182.87 125.882 1182.07 126.399C1181.28 126.915 1180.36 127.284 1179.31 127.505C1178.27 127.726 1177.17 127.837 1176.03 127.837H1163.49V127.837Z" fill="white"/>
</g>
<path d="M60.8438 319.084C64.6646 303.801 74.2167 296.159 89.5 296.159C112.425 296.159 115.291 313.353 126.753 316.219C134.395 318.129 141.081 315.263 146.812 307.622C142.992 322.905 133.44 330.547 118.156 330.547C95.2313 330.547 92.3656 313.353 80.9031 310.487C73.2615 308.577 66.575 311.443 60.8438 319.084ZM32.1875 353.472C36.0083 338.188 45.5604 330.547 60.8438 330.547C83.7687 330.547 86.6344 347.741 98.0969 350.606C105.739 352.517 112.425 349.651 118.156 342.009C114.335 357.293 104.783 364.934 89.5 364.934C66.575 364.934 63.7094 347.741 52.2469 344.875C44.6052 342.965 37.9187 345.83 32.1875 353.472Z" fill="#44A8B3"/>
<path d="M1014.54 280.605L994.354 270.889C993.214 270.339 991.932 270.158 990.685 270.37C989.437 270.582 988.287 271.177 987.393 272.072L921.33 332.3C920.528 333.027 920.049 334.043 919.996 335.124C919.944 336.205 920.323 337.263 921.05 338.064C921.138 338.159 921.225 338.25 921.32 338.334L926.713 343.234C927.418 343.875 928.325 344.25 929.277 344.292C930.229 344.334 931.166 344.042 931.925 343.465L1011.5 283.125C1012.1 282.669 1012.81 282.39 1013.57 282.319C1014.32 282.248 1015.07 282.388 1015.75 282.723C1016.42 283.058 1016.99 283.576 1017.39 284.217C1017.79 284.858 1018 285.597 1018 286.352V286.117C1018 284.966 1017.67 283.837 1017.06 282.862C1016.45 281.887 1015.57 281.104 1014.54 280.605V280.605Z" fill="#0065A9"/>
<path d="M1014.54 357.395L994.354 367.114C993.214 367.662 991.932 367.843 990.685 367.631C989.438 367.419 988.288 366.825 987.393 365.931L921.33 305.7C920.528 304.973 920.049 303.957 919.996 302.876C919.944 301.795 920.323 300.737 921.05 299.935C921.138 299.841 921.225 299.75 921.32 299.666L926.713 294.766C927.418 294.122 928.328 293.746 929.282 293.704C930.237 293.661 931.175 293.956 931.935 294.535L1011.5 354.875C1012.1 355.331 1012.81 355.61 1013.57 355.681C1014.32 355.752 1015.07 355.612 1015.75 355.277C1016.42 354.941 1016.99 354.424 1017.39 353.783C1017.79 353.142 1018 352.402 1018 351.648V351.9C1018 353.049 1017.67 354.173 1017.06 355.145C1016.44 356.117 1015.57 356.896 1014.54 357.395V357.395Z" fill="#007ACC"/>
<path d="M994.354 367.114C993.214 367.662 991.932 367.843 990.685 367.631C989.438 367.419 988.287 366.825 987.392 365.931C987.895 366.427 988.533 366.764 989.226 366.899C989.919 367.034 990.637 366.962 991.289 366.691C991.941 366.42 992.499 365.963 992.892 365.376C993.285 364.79 993.497 364.1 993.5 363.394V274.606C993.501 273.896 993.291 273.203 992.897 272.613C992.503 272.023 991.942 271.563 991.287 271.291C990.631 271.02 989.91 270.949 989.214 271.088C988.518 271.227 987.88 271.57 987.378 272.072C988.273 271.177 989.423 270.582 990.67 270.37C991.917 270.157 993.2 270.337 994.34 270.885L1014.52 280.587C1015.56 281.084 1016.44 281.866 1017.05 282.841C1017.67 283.816 1018 284.946 1018 286.1V351.9C1018 353.053 1017.67 354.182 1017.06 355.158C1016.45 356.134 1015.57 356.917 1014.53 357.416L994.354 367.114Z" fill="#1F9CF0"/>
<path d="M454.5 76.4999H559.5V181.5H454.5V76.4999Z" fill="#F5DE19"/>
<path d="M525.034 158.531C525.928 160.348 527.318 161.876 529.043 162.937C530.768 163.999 532.758 164.551 534.784 164.531C538.871 164.531 541.485 162.487 541.485 159.656C541.485 156.281 538.8 155.074 534.3 153.105L531.833 152.047C524.708 149.014 519.983 145.215 519.983 137.182C519.983 129.784 525.608 124.147 534.431 124.147C537.288 123.941 540.142 124.58 542.637 125.986C545.132 127.391 547.159 129.499 548.464 132.049L540.75 136.98C540.248 135.716 539.373 134.634 538.242 133.879C537.11 133.124 535.776 132.73 534.416 132.75C533.823 132.691 533.224 132.755 532.657 132.94C532.09 133.125 531.568 133.426 531.123 133.824C530.679 134.222 530.323 134.708 530.077 135.252C529.831 135.795 529.701 136.384 529.695 136.98C529.695 139.939 531.529 141.139 535.763 142.98L538.23 144.037C546.615 147.634 551.355 151.297 551.355 159.536C551.355 168.42 544.376 173.287 535.005 173.287C531.354 173.52 527.713 172.691 524.522 170.9C521.332 169.11 518.727 166.434 517.024 163.196L525.034 158.531ZM490.178 159.386C491.726 162.135 493.136 164.46 496.526 164.46C499.766 164.46 501.814 163.192 501.814 158.261V124.71H511.68V158.392C511.68 168.607 505.68 173.257 496.946 173.257C493.859 173.426 490.793 172.657 488.151 171.05C485.51 169.444 483.416 167.076 482.145 164.257L490.178 159.386Z" fill="black"/>
<path d="M245.132 176.154L236.71 82.4374H329.29L320.856 176.139L282.944 186.562L245.132 176.154Z" fill="#1572B6"/>
<path d="M283 178.597L313.637 170.174L320.845 90.1018H283V178.597Z" fill="#33A9DC"/>
<path d="M283 124.054H298.338L299.395 112.284H283V100.789H312.062L311.785 103.872L308.939 135.549H283V124.054V124.054Z" fill="white"/>
<path d="M283.071 153.904L283.019 153.919L270.111 150.461L269.286 141.294H257.65L259.274 159.341L283.015 165.879L283.071 165.864V153.904V153.904Z" fill="#EBEBEB"/>
<path d="M297.351 135.061L295.956 150.453L283.03 153.912V165.871L306.79 159.341L306.966 157.4L308.98 135.061H297.351V135.061Z" fill="white"/>
<path d="M283.041 100.789V112.284H255.044L254.811 109.7L254.283 103.872L254.005 100.789H283.041V100.789ZM283 124.054V135.549H270.254L270.021 132.964L269.496 127.137L269.219 124.054H283V124.054Z" fill="#EBEBEB"/>
<path d="M22.1325 178.004L13.7062 83.4999H106.294L97.8562 177.989L59.9437 188.5L22.1325 178.004Z" fill="#E44F26"/>
<path d="M60 180.467L90.6375 171.974L97.845 91.2287H60V180.467Z" fill="#F1662A"/>
<path d="M60 126.276H44.6625L43.605 114.407H60V102.816H30.9375L31.215 105.929L34.0613 137.867H60V126.276V126.276ZM60 156.377L59.9475 156.392L47.04 152.909L46.215 143.665H34.5787L36.2025 161.86L59.9475 168.452L60 168.437V156.377Z" fill="#EBEBEB"/>
<path d="M59.9587 126.276V137.867H74.2312L72.8887 152.901L59.9587 156.389V168.449L83.7225 161.86L83.895 159.902L86.6175 129.389L86.9025 126.276H59.9587V126.276ZM59.9587 102.816V114.407H87.9562L88.1887 111.805L88.7175 105.929L88.995 102.816H59.9587V102.816Z" fill="white"/>
<g clip-path="url(#clip4_1_158)">
<path d="M744.365 379.745C742.801 379.471 741.181 378.729 740.263 377.907C739.639 377.253 739.283 376.389 739.265 375.485C739.265 374.566 739.734 373.276 740.476 371.99C740.926 371.266 741.279 370.486 741.53 369.665C741.688 369.099 742.018 368.18 742.273 367.595L742.723 366.522L742.839 359.356C742.899 355.392 743.015 351.721 743.113 351.151C743.368 349.509 743.795 347.907 744.361 346.347L744.793 345.312L744.166 344.941C743.6 344.589 743.131 344.101 741.275 341.892C738.991 339.196 735.984 337.711 731.724 337.205C730.336 337.07 728.93 336.969 727.524 336.912C721.273 336.62 717.699 335.311 714.478 332.146C712.074 329.784 710.825 327.027 710.319 322.966C709.636 317.476 708.875 314.664 707.469 312.38C707.122 311.816 706.723 311.286 706.276 310.797L705.71 310.231L704.461 311.034C703.779 311.484 702.819 312.05 702.35 312.305C700.786 313.164 699.301 314.12 697.876 315.155C694.381 317.694 690.571 320.877 688.483 322.966C687.545 323.904 687.058 324.312 686.84 324.275C685.415 324.061 686.506 317.889 688.831 313.239C691.801 307.242 696.8 301.715 702.583 297.984C707.33 294.916 715.006 290.697 718.558 289.212C724.865 286.576 733.029 283.722 738.616 282.2C739.79 281.866 740.51 281.574 740.998 281.244C742.093 280.482 743.165 280.111 744.395 280.092C745.43 280.074 745.528 280.055 746.525 279.387C747.699 278.626 748.048 278.585 749.221 278.997L749.983 279.271L750.92 278.626L751.858 278L753.204 278.019C754.239 278.037 754.708 278 755.158 277.805C755.724 277.55 755.743 277.512 755.9 276.575C756.253 274.542 756.29 273.526 756.076 272.296C755.803 270.676 755.765 264.387 756.039 263.154C756.331 261.826 756.526 261.552 757.524 261.065C759.009 260.341 760.123 260.127 762.68 260.127C765.804 260.127 767.386 260.559 768.56 261.691C769.614 262.707 769.79 265.089 769.243 270.676C768.909 273.897 768.871 274.797 768.969 276.905C769.006 278.251 769.104 279.522 769.145 279.699C769.224 280.032 769.303 280.051 770.435 280.07C771.549 280.089 771.744 280.149 772.798 280.696C773.814 281.225 774.575 281.87 774.733 282.339C774.751 282.436 774.928 282.436 775.239 282.339C775.843 282.162 776.371 282.357 776.803 282.886C777.058 283.22 777.211 283.276 777.8 283.276C778.603 283.276 778.895 283.471 779.559 284.45C779.869 284.889 780.295 285.234 780.789 285.447C781.884 285.995 783.369 287.517 783.935 288.729C784.813 290.525 784.989 292.614 784.441 294.489C784.246 295.194 784.246 295.212 784.655 295.895C785.514 297.361 785.829 299.157 785.476 300.68L785.281 301.58L785.866 302.165C788.776 305.075 788.345 309.822 784.794 314.06C784.397 314.544 784.062 315.076 783.796 315.642C783.114 317.457 782.33 318.729 781.318 319.782L780.283 320.836H779.229C778.175 320.836 776.69 320.484 775.79 320.015C775.419 319.82 775.4 319.82 775.479 320.052C775.715 320.911 776.3 324.406 776.495 326.341C776.806 329.311 776.709 333.627 776.3 335.484C776.001 336.858 775.501 338.182 774.815 339.41C774.425 340.036 774.406 340.171 774.481 340.932C774.598 342.005 774.346 343.805 773.915 344.994C773.386 346.381 773.191 347.026 773.075 347.727C772.978 348.331 772.978 348.331 773.409 348.331C773.975 348.331 774.286 348.665 774.286 349.329C774.286 349.621 774.031 351.204 773.72 352.824C772.861 357.376 772.801 357.882 772.801 362.296C772.783 366.849 772.783 366.807 773.818 367.49L776.143 368.994C778.143 370.321 780.285 371.422 782.529 372.275C785.791 373.565 786.241 373.895 786.241 374.99C786.241 375.477 786.144 375.654 785.735 376.044C784.486 377.255 782.023 377.529 777.061 377C774.483 376.758 771.896 376.635 769.306 376.629C762.47 376.531 761.473 376.295 760.576 374.596C760.07 373.621 760.168 372.35 760.869 370.261C761.18 369.342 761.454 368.405 761.69 367.449C762.159 365.184 761.848 362.487 760.753 359.442L759.815 356.844C758.896 354.207 758.39 349.381 758.938 348.29C759.035 348.076 759.211 348.035 759.68 348.054L760.265 348.114L760.753 347.097C761.124 346.295 761.533 345.77 762.646 344.656L764.071 343.231L763.993 342.312C763.933 341.435 762.781 337.175 762.624 337.194C762.564 337.194 762.253 337.625 761.9 338.169C761.041 339.459 759.148 341.45 758.071 342.174C757.603 342.485 757.213 342.856 757.213 342.976C757.194 343.505 756.744 344.54 756.196 345.26C755.668 345.965 755.63 346.081 755.709 346.704C755.844 347.622 755.551 350.57 755.203 352.115C754.886 353.262 754.454 354.374 753.913 355.434C752.566 358.227 751.55 360.725 751.295 361.88C751.111 362.992 750.993 364.114 750.943 365.24C750.883 366.567 750.748 367.857 750.65 368.131C750.515 368.502 750.515 368.795 750.631 369.361C750.729 369.77 750.789 370.689 750.766 371.412C750.748 372.41 750.826 373.055 751.119 374.225C751.625 376.216 751.723 377.469 751.49 378.211C751.333 378.68 751.179 378.856 750.65 379.111C749.476 379.715 746.158 380.049 744.361 379.737L744.365 379.745ZM749.109 378.144C749.791 377.949 750.38 377.364 750.38 376.835C750.38 376.599 750.185 375.916 749.949 375.312C749.48 374.161 748.678 371.112 748.678 370.606C748.678 370.351 748.696 370.332 749.086 370.546L749.518 370.782V370.235C749.455 369.73 749.343 369.233 749.184 368.75C748.813 367.636 748.775 367.617 746.409 367.479L744.808 367.4L744.223 367.966C743.901 368.297 743.619 368.665 743.383 369.061C743.128 369.567 743.03 370.332 743.188 370.505C743.225 370.565 743.619 370.505 744.046 370.407C744.3 370.332 744.562 370.287 744.826 370.272C744.826 370.291 744.395 370.644 743.851 371.015C741.508 372.774 740.686 373.846 740.686 375.215C740.686 376.64 742.033 377.754 744.144 378.087C745.588 378.301 748.4 378.361 749.105 378.147L749.109 378.144ZM780.886 375.819C781.471 375.114 781.393 374.394 780.65 373.572C780.219 373.141 779.731 372.77 779.184 372.477C778.636 372.185 778.089 371.851 777.541 371.502C776.551 370.861 775.534 370.261 774.493 369.706C773.593 369.219 772.715 368.709 771.856 368.165L771.504 367.891V362.521C771.504 357.23 771.485 357.151 771.211 357.23C769.843 357.601 767.578 357.777 764.709 357.717L761.604 357.68L762.054 358.775C762.894 360.845 763.325 363.62 763.325 366.804C763.325 367.996 763.246 368.424 762.954 369.264C762.796 369.672 762.661 370.085 762.523 370.494C762.463 370.67 762.68 370.805 763.479 371.041C764.064 371.217 764.923 371.394 765.414 371.45L766.314 371.547L766.216 372.447C766.119 373.464 766.235 374.536 766.49 374.87C766.648 375.065 767.233 375.144 769.948 375.26C771.999 375.357 774.226 375.571 775.981 375.826C777.504 376.062 779.146 376.257 779.634 376.257C780.455 376.276 780.534 376.239 780.883 375.826L780.886 375.819ZM749.619 366.68C749.698 366.62 749.814 365.566 749.855 364.317C750.013 360.822 750.148 360.312 751.906 356.367C753.35 353.146 754.115 350.139 754.055 348.009L754.018 346.737L753.47 347.266C752.338 348.399 753.118 346.621 754.468 345.039C755.484 343.827 755.836 343.164 755.99 342.091C756.069 341.66 756.226 341.446 756.89 340.94C759.373 339.064 761.287 336.535 762.418 333.635C762.691 332.93 763.393 330.53 763.981 328.302C765.076 324.181 765.661 322.404 766.19 321.642C766.385 321.35 766.464 321.29 766.426 321.485C766.143 322.532 765.921 323.595 765.763 324.669C765.605 325.625 765.313 327.5 765.118 328.809C764.746 331.486 764.356 333.204 763.828 334.531L763.475 335.431L764.413 337.854C765.388 340.332 765.838 342.132 765.916 343.869L765.976 344.844L765.215 345.001C764.21 345.179 763.314 345.74 762.714 346.565C762.05 347.521 761.679 348.305 761.855 348.477C761.934 348.556 762.89 348.732 763.985 348.867C765.684 349.062 766.329 349.062 768.575 348.927C769.55 348.89 770.51 348.792 771.466 348.654C771.68 348.575 771.898 348.147 772.246 347.034C773.049 344.476 773.203 343.576 773.105 341.78L773.026 340.197L773.435 339.669C774.391 338.457 775.134 336.271 775.445 333.71C775.816 330.586 775.134 324.042 773.863 318.417C773.259 315.74 773.004 314.139 773.004 312.969V311.934L772.048 312.031C768.609 312.402 764.45 312.305 761.911 311.776C760.524 311.502 757.029 310.467 756.268 310.134L755.664 309.86L755.585 310.542C755.525 310.914 755.469 311.285 755.39 311.675C755.274 312.084 755.311 312.181 756.035 312.886C756.935 313.805 757.209 314.274 757.209 314.896C757.209 315.286 756.995 315.601 755.9 316.734C755.115 317.571 754.244 318.324 753.301 318.98L752.03 319.839L751.483 321.732C749.529 328.666 749.158 334.974 750.448 339.485L750.759 340.617L750.133 341.397C747.789 344.345 746.401 346.591 746.188 347.844C746.063 348.46 745.919 349.073 745.756 349.681C745.25 351.616 744.856 354.447 744.684 357.515C744.564 360.083 744.395 362.648 744.178 365.21L744.08 365.971L745.055 366.264C745.603 366.44 746.424 366.635 746.893 366.714C747.77 366.849 749.394 366.811 749.645 366.676L749.619 366.68ZM768.583 355.936C770.105 355.839 771.493 355.602 771.766 355.37C771.883 355.291 772.021 354.882 772.059 354.47L772.156 353.727L770.945 354.001C769.989 354.196 769.033 354.312 768.073 354.391C765.766 354.489 763.445 354.429 761.158 354.196C760.396 354.08 760.396 354.08 760.629 355.074C760.824 355.816 760.865 355.854 762.856 355.992C764.184 356.109 766.04 356.09 768.579 355.932L768.583 355.936ZM767.311 352.539C769.303 352.362 771.785 351.935 772.273 351.68C772.43 351.601 772.565 351.309 772.625 350.975L772.801 349.94L772.899 349.452L772.411 349.55C770.244 350 768.601 350.135 765.32 350.135C762.118 350.135 761.746 350.116 760.906 349.824C760.583 349.688 760.24 349.608 759.89 349.587C759.755 349.666 759.733 350.78 759.853 351.56C759.931 352.029 760.01 352.107 760.479 352.242C761.964 352.651 764.465 352.749 767.315 352.516L767.311 352.539ZM731.064 334.921C736.063 333.477 742.606 329.236 747.958 323.926C749.698 322.186 749.911 321.954 750.144 321.174L750.455 320.176C750.493 320.097 750.181 319.962 749.773 319.865C748.7 319.61 747.879 318.987 747.879 318.421C747.879 318.087 747.684 317.757 747.118 317.15C746.199 316.115 745.966 315.665 745.869 314.671L745.79 313.869L744.695 313.089C744.069 312.639 741.883 311.427 739.558 310.257C737.787 309.394 736.054 308.455 734.364 307.445C732.41 306.136 731.101 304.572 730.359 302.72C730.224 302.349 730.048 302.037 729.988 302.037C729.83 302.037 725.435 306.275 723.56 308.266C718.933 313.149 715.749 317.386 713.735 321.312C713.229 322.287 712.681 323.442 712.524 323.87L712.231 324.65L712.584 325.959C712.798 326.664 713.248 327.815 713.6 328.497C714.83 330.92 716.296 332.382 718.719 333.575C721.318 334.865 723.62 335.315 727.468 335.255C729.538 335.236 730.145 335.176 731.06 334.902L731.064 334.921ZM691.61 317.791C694.891 314.881 699.421 311.697 704.971 308.397C708.605 306.23 722.649 299.199 729.114 296.326C730.288 295.797 731.341 295.31 731.458 295.254C731.574 295.175 731.908 294.335 732.219 293.397C733.588 289.062 734.27 288.204 736.749 287.637C737.06 287.559 737.139 287.461 737.139 287.15C737.139 286.584 737.529 285.275 737.863 284.69C738.118 284.24 738.118 284.221 737.9 284.281C737.765 284.319 736.944 284.555 736.085 284.81C724.171 288.249 713.761 292.816 704.776 298.52C695.188 304.614 689.66 311.919 688.059 320.667L687.943 321.312L689.116 320.161C689.743 319.516 690.875 318.462 691.618 317.817L691.61 317.791ZM779.99 319.452C780.946 318.965 782.431 316.719 782.979 314.941C783.136 314.315 783.448 313.73 783.898 313.242C785.341 311.641 786.534 308.731 786.553 306.74C786.553 303.635 784.794 302.442 782.236 303.77C781.903 303.927 781.633 304.044 781.591 304.006C781.456 303.871 782.176 303.166 783.058 302.619C784.209 301.857 784.426 301.407 784.426 299.787C784.443 298.478 784.054 297.195 783.313 296.116C782.96 295.587 782.825 295.239 782.881 295.021L783.234 293.712C783.721 291.972 783.545 289.981 782.784 288.714C781.651 286.801 780.264 285.864 778.329 285.706L777.196 285.627L777.86 286.37C779.833 288.5 780.789 291.174 780.399 293.461C780.204 294.635 780.028 294.867 778.895 295.317L778.231 295.591L778.31 296.491C778.445 297.957 778.194 299.03 777.256 301.002C776.788 302 776.435 302.896 776.476 302.994C776.593 303.327 777.883 303.95 778.899 304.205L779.896 304.441L779.27 304.655C778.449 304.91 778.273 305.281 778.273 306.627C778.273 307.857 778.449 308.367 779.345 309.714C779.754 310.299 780.028 310.906 780.069 311.255C780.148 311.802 780.129 311.84 779.679 311.997C779.169 312.141 778.644 312.226 778.115 312.252C776.278 312.369 776.143 312.429 775.321 313.209C774.579 313.914 774.56 313.951 774.56 314.731C774.56 315.804 774.969 317.975 775.224 318.267C775.558 318.62 777.41 319.539 778.134 319.674C778.758 319.83 779.418 319.754 779.99 319.46V319.452ZM752.938 317.99C754.13 317.052 755.068 316.115 755.593 315.312C755.926 314.825 755.945 314.727 755.788 314.315C755.514 313.689 753.718 312.069 752.72 311.581C752.055 311.283 751.352 311.08 750.631 310.977L749.401 310.82L748.64 309.864C747.058 307.91 746.18 306.387 744.928 303.436C743.833 300.935 742.876 299.472 741.354 298.025C740.728 297.44 740.281 296.952 740.319 296.952C740.398 296.952 741.14 297.324 741.999 297.774C743.424 298.535 743.6 298.595 744.245 298.497C746.57 298.224 748.621 295.55 749.364 291.8C749.578 290.746 750.009 289.67 750.459 289.025C750.478 289.006 751.378 289.591 752.431 290.352C755.109 292.246 755.694 292.539 757.216 292.599C758.214 292.636 758.78 292.561 760.576 292.13C764.405 291.192 768.545 290.821 771.065 291.155C772.49 291.35 774.541 291.976 776.064 292.696C777.568 293.401 777.86 293.439 778.348 293.007C778.756 292.655 778.756 292.599 778.756 291.29C778.738 289.355 778.033 287.266 776.96 286.017C776.413 285.372 774.871 284.319 773.345 283.516C772.802 283.228 772.262 282.936 771.725 282.639C771.001 282.207 770.184 282.267 767.956 282.852C765.376 283.516 764.694 283.516 761.746 282.755C759.245 282.129 759.091 282.11 756.628 282.5C755.319 282.695 752.038 282.579 750.943 282.286C750.395 282.129 749.848 281.975 749.323 281.78C748.366 281.409 746.705 281.349 745.201 281.622C742.213 282.151 739.948 283.771 739.126 285.976C738.695 287.09 738.755 287.619 739.321 287.967C740.221 288.534 741.41 290.079 741.41 290.682C741.41 290.72 741.118 290.469 740.784 290.116C739.944 289.239 739.183 288.845 738.283 288.845C737.7 288.861 737.134 289.04 736.648 289.36C736.161 289.681 735.774 290.131 735.53 290.66C735.267 291.35 735.046 292.055 734.866 292.771C734.319 294.762 733.831 295.82 732.796 297.226C731.878 298.497 731.743 299.064 732.073 300.489C732.894 304.081 734.319 305.529 740.274 308.907C743.398 310.685 744.999 311.682 746.173 312.56C747.073 313.224 747.091 313.265 747.013 313.771C746.836 314.945 747.579 316.212 749.045 317.247C749.416 317.502 749.649 317.776 749.649 317.971C749.649 318.324 750.646 318.811 751.366 318.811C751.775 318.811 752.09 318.635 752.93 317.99H752.938ZM777.02 311.405C779.285 311.484 779.401 311.307 778.194 309.901C776.923 308.435 776.574 307.246 777.043 305.937L777.238 305.431L776.435 305.041C776.161 304.906 775.888 304.767 775.614 304.67C775.479 305.199 775.34 305.705 775.224 306.234C774.931 307.426 774.579 310.512 774.56 311.821C774.56 311.937 774.755 311.9 775.089 311.686C775.558 311.412 775.794 311.375 777.024 311.412L777.02 311.405ZM769.423 311.289C770.791 311.21 772.198 311.112 772.569 311.052L773.251 310.955L773.33 308.709C773.446 305.506 773.915 303.612 775.303 300.582C776.278 298.434 776.709 296.559 776.495 295.152C776.416 294.549 776.379 294.507 775.558 294.155C774.054 293.558 772.488 293.131 770.889 292.884C769.348 292.67 764.814 292.786 763.115 293.12C762.41 293.236 761.124 293.51 760.265 293.724C758.135 294.211 757.003 294.155 755.383 293.45C753.781 292.745 752.765 292.104 751.809 291.204C751.048 290.499 750.969 290.461 750.774 290.697C750.616 290.874 750.538 291.402 750.481 292.535C750.421 294.275 750.148 295.19 749.386 296.42C749.217 296.673 749.073 296.942 748.955 297.222C748.955 297.282 749.54 297.965 750.264 298.707C752.765 301.306 753.995 301.97 755.968 301.831C756.613 301.771 757.063 301.794 757.063 301.869C757.063 302.026 755.791 303.02 755.266 303.294C755.011 303.429 754.955 303.567 754.993 303.86L755.304 305.911C755.48 307.085 755.615 307.629 755.791 307.786C756.26 308.176 758.683 309.429 760.205 310.051C762.196 310.854 763.291 311.146 764.814 311.281C766.689 311.439 766.726 311.439 769.423 311.281V311.289ZM753.271 309.14C753.309 309.08 753.174 307.947 752.919 306.639C752.608 304.861 752.431 304.216 752.236 304.04C752.101 303.924 751.378 303.414 750.654 302.889C749.703 302.205 748.802 301.454 747.958 300.642L746.611 299.315L745.888 299.686L745.126 300.095C745.19 300.4 745.295 300.695 745.438 300.972C745.651 301.441 746.083 302.592 746.394 303.53C747.215 305.971 747.86 307.145 749.48 309.271L750.084 310.074L751.235 310.25C751.88 310.347 752.525 310.486 752.701 310.542C752.975 310.659 753.013 310.602 753.091 309.976C753.129 309.702 753.189 309.41 753.268 309.136L753.271 309.14ZM778.018 284.844C779.015 284.746 779.191 284.607 778.76 284.161C778.486 283.887 777.86 283.869 777.354 284.101C777.02 284.259 776.945 284.217 776.416 283.651C775.869 283.047 775.831 283.025 775.145 283.104C774.519 283.182 774.421 283.164 774.343 282.909C774.099 282.49 773.795 282.108 773.443 281.776C772.999 281.272 772.444 280.878 771.823 280.625C770.611 280.156 769.929 280.216 768.774 280.861C765.433 282.676 765.571 282.657 762.346 281.836C759.339 281.075 757.093 280.295 756.369 279.804C755.765 279.395 754.475 278.945 753.399 278.806C752.596 278.69 752.09 278.866 751.329 279.489L750.92 279.822L751.291 280.467C751.798 281.367 751.741 281.424 750.98 280.76C750.159 280.077 749.184 279.609 748.558 279.586C748.108 279.586 746.78 280.171 746.623 280.426C746.563 280.505 746.975 280.602 747.523 280.64C748.089 280.7 748.869 280.895 749.398 281.109C750.766 281.694 751.468 281.889 752.716 282.009C754.085 282.144 756.564 281.99 756.856 281.754C757.014 281.619 757.441 281.596 758.341 281.675C759.534 281.754 760.021 281.87 762.853 282.631C764.495 283.081 765.646 283.04 767.6 282.515C768.5 282.26 769.633 282.009 770.101 281.949C770.904 281.87 771.058 281.911 772.31 282.477C774.301 283.377 775.359 283.944 775.944 284.469C776.529 284.975 776.608 284.975 778.014 284.859L778.018 284.844ZM766.884 281.427L768.076 280.801L768.039 279.59C768.02 278.75 767.979 277.929 767.941 277.111L767.844 275.862L766.651 276.781C765.946 277.329 765.264 277.737 764.971 277.797C764.113 277.955 759.875 277.797 759.481 277.584C758.957 277.196 758.466 276.765 758.015 276.294L756.92 275.18L756.901 275.844C756.901 276.196 756.864 276.8 756.785 277.171C756.688 277.876 756.688 277.895 757.449 278.851C757.858 279.38 758.191 279.849 758.191 279.905C758.191 280.276 763.835 282.035 765.106 282.054C765.515 282.054 766.025 281.877 766.884 281.427V281.427ZM764.619 276.991C766.025 276.717 766.708 275.701 767.236 273.125C767.784 270.35 768.058 265.996 767.803 264.14C767.566 262.46 765.691 261.717 762.118 261.834C759.89 261.912 758.971 262.126 758.21 262.771C757.741 263.161 757.741 263.202 757.528 265.055C757.138 268.61 757.723 273.669 758.739 275.562C759.226 276.481 759.658 276.811 760.554 276.969C761.57 277.145 763.738 277.145 764.615 276.987L764.619 276.991Z" fill="black"/>
</g>
<path d="M899.717 66.4144C903.387 66.0368 906.172 62.8921 906.046 59.1181C905.919 55.3445 902.754 52.3254 898.957 52.3254H898.704C894.779 52.4513 891.741 55.7218 891.868 59.6213C891.995 61.5083 892.754 63.1435 893.893 64.2756C889.59 72.704 883.007 78.8677 873.133 84.0252C866.424 87.5475 859.462 88.8055 852.5 87.9251C846.803 87.1702 842.373 84.6546 839.588 80.503C835.537 74.3392 835.157 67.672 838.575 61.0051C840.981 56.2249 844.778 52.7026 847.183 50.9415C846.677 49.3063 845.917 46.5389 845.537 44.5264C827.182 57.7347 829.081 75.5972 834.651 84.0252C838.828 90.3152 847.31 94.2147 856.677 94.2147C859.209 94.2147 861.74 93.963 864.272 93.3344C880.475 90.1894 892.754 80.6289 899.717 66.4144V66.4144ZM921.996 50.816C912.375 39.6203 898.198 33.4566 881.994 33.4566H879.969C878.83 31.1923 876.425 29.6826 873.766 29.6826H873.513C869.589 29.8084 866.551 33.0789 866.678 36.9788C866.804 40.7524 869.969 43.7715 873.766 43.7715H874.019C876.804 43.6457 879.21 41.8845 880.222 39.4944H882.501C892.122 39.4944 901.236 42.2618 909.464 47.671C915.793 51.8223 920.35 57.2315 922.882 63.7725C925.034 69.0559 924.907 74.2134 922.629 78.6164C919.084 85.2832 913.135 88.9314 905.286 88.9314C900.223 88.9314 895.413 87.4216 892.881 86.2895C891.489 87.5475 888.957 89.56 887.184 90.8184C892.628 93.334 898.198 94.7178 903.514 94.7178C915.666 94.7178 924.654 88.0506 928.072 81.3837C931.743 74.0875 931.49 61.5083 921.996 50.816V50.816ZM857.69 68.5524C857.816 72.3264 860.981 75.3451 864.779 75.3451H865.032C868.956 75.2196 871.994 71.9487 871.867 68.0492C871.741 64.2752 868.576 61.2565 864.779 61.2565H864.526C864.272 61.2565 863.892 61.2565 863.64 61.382C858.449 52.8281 856.298 43.5198 857.057 33.4562C857.563 25.9086 860.095 19.3672 864.526 13.9579C868.197 9.30357 875.285 7.03933 880.096 6.91384C893.514 6.66208 899.21 23.2667 899.59 29.9339C901.236 30.3112 904.02 31.1919 905.919 31.8209C904.4 11.4427 891.741 0.875977 879.59 0.875977C868.197 0.875977 857.69 9.05259 853.512 21.1287C847.689 37.2302 851.487 52.7026 858.576 64.9046C857.943 65.785 857.563 67.1689 857.69 68.5528V68.5524Z" fill="#764ABC"/>
<defs>
<clipPath id="clip0_1_158">
<rect width="105" height="105" fill="white" transform="translate(479 267)"/>
</clipPath>
<clipPath id="clip1_1_158">
<rect width="113" height="101" fill="white" transform="translate(673 75.9999)"/>
</clipPath>
<clipPath id="clip2_1_158">
<rect width="117" height="87" fill="white" transform="translate(250 285)"/>
</clipPath>
<clipPath id="clip3_1_158">
<rect width="88" height="87" fill="white" transform="translate(1127 66.9999)"/>
</clipPath>
<clipPath id="clip4_1_158">
<rect width="120" height="120" fill="white" transform="translate(677 260)"/>
</clipPath>
</defs>
</svg>
